<mxfile host="65bd71144e">
    <diagram id="pNK-c9wd6SOx1_jiex8f" name="Page-1">
        <mxGraphModel dx="1373" dy="1475" grid="0" gridSize="10" guides="1" tooltips="1" connect="1" arrows="1" fold="1" page="0" pageScale="1" pageWidth="850" pageHeight="1100" math="0" shadow="0">
            <root>
                <mxCell id="0"/>
                <mxCell id="1" parent="0"/>
                <mxCell id="15" value="" style="shape=image;verticalLabelPosition=bottom;labelBackgroundColor=default;verticalAlign=top;aspect=fixed;imageAspect=0;image=data:image/png,iVBORw0KGgoAAAANSUhEUgAAA1AAAAOLCAYAAABe4mLdAAAgAElEQVR4nOzdT2wbaZrn+V/+GaWz6bTacmWWUkjBC9EeGPaBhwWhw07CNA/lRKCxC9HQwdV96EVRfVhb2J0pJYHuXSRBYLcbYLl6diD5UmJi8jBdOhCmMAVsAK6DzKyci0BgFjrYyEaaWiQ8sFWdabmYZbZtVTVyDxEkI4KU9JLiP0nfD5AHk8F4n3gjmHgfvc/78rWPPnn9+weffSAAAAAAwN5eH3QAAAAAAHBYkEABAAAAgCESKAAAAAAwRAIFAAAAAIZIoAAAAADAEAkUAAAAABgigQIAAAAAQyRQAAAAAGCIBAoAAAAADJFAAQAAAIAhEigAAAAAMEQCBQAAAACGSKAAAAAAwBAJFAAAAAAYIoECAAAAAEMkUAAAAABgiAQKAAAAAAyRQAEAAACAIRIoAAAAADBEAgUAAAAAhkigAAAAAMAQCRQAAAAAGCKBAgAAAABDJFAAAAAAYIgECgAAAAAMkUABAAAAgCESKAAAAAAwRAIFAAAAAIaOYAIVU2bFlr2UHHQgHoYxzS3Ktu3Gfz29hqQWbVv5dMz8I/GM8rYt215UbyLrIKZjyX2e6s9KXpn4oGMCAAA4Hg5lApVcsmWvZHTkhtnL87IsS5aVVaky6GAwvIpKX7ecZ2W1POhgAAAAjpU3Bx0ADpG1tGbXBh0EAAAAMDiHcgYKAAAAAAahLzNQySVbCRVkbURkz4TdV6sq3ZpVek1y1r4kFN4syLqZa/7smZKy1x/pmp1QuP5OVCnbVqp2tvWsZjPF+rvVbx4qls4rNR1yXqiUlL2eVtFzbs0teuJpcczcouwZqWBtKOJpO9iWqaaYVFbBmlduz0+14vaX55XyqqX55cBhgevbL+5GbI24kku2ElOBA036crdr60JMJrrzzAWusR+6/Mz5nzf57517L5qfHadvxjtsEwAA4Cjr3wzUVMIdGDprNwqbIUUXapsR5HRnvSpNRQKbEyQVmZLKa2kVldN8/bNyBoLuvy3LahrohaZTSr17132/oPJoVCnPpgyxdF72zLhKt6zGuiNFlWraICGshH1V2+5x2fWqQtM3Olq0748pq1IlrETbG0XElFmJaMNz7dn1qsIz/o0EnOtzBse1427r2q5x1wbazvGNRCV3s/H5et8HxTPKRzY8x7nXFlin1q2YjB34mRuUsBJ2QlptrHMKTae0ONfmaeYWdUO3Pfcl8D1YvqNSRQpHAs/gXERhlXWX5AkAAKBJH0v4/DMIuUJJVYUVcQeFxS8eqKqwrnp2YIulryqssjaCMysmfDMLOW1sSjoz6Q7ok7o2HVJ1/bY7GyFJRaWX/TE5vLMWtThDGvNOtnQUU1HptXKLAfx+ikpf9ycTTTHFM7oxHVJ1PeubWShm5j3X25BcspWalkq3WsximVhLa9Y3i1PUvS+r0uiYztVe6ndMkvr+zHWRb1Zot0RnP8vzgT8sBL8H7n2auupJYmPKxMPS5kYHM6MAAABHX/82kahs66H332uPtLUQ1fhETFJRWkvrbsJW4sIVxVRUUTFduRBSdf1O9wdy8UmNq6oHXwT+wr52Tw/morpYi6nXytuq6qIm45La2ZyhqVwuIDymkKoqBa+vhdB0SglJ5dXZlomMqZalfgOOqb/PXHNZZXPZYUyZlZSio95j/Al67bVt3+Z6RT16mlLUTXzMn8xW7Uny7PBYzNzVNTuhix/GpLWiFL+ii6NVlZZJnwAAAFoZ+C58W48bw8HcRlmJmYu6EpeKuqKLo0e8jCg8ptD+R/m5yZNvTUw8o/xCtKMQqutZ3X03pcRMXplyZwmLkzz5EwGn/K6jkLoS015688zlNG/tl3QUlb5+gOf56aMOkid/Eues7/Iel9PGZkJhN4nUhxcV2rzb9T4HAAA4Kga3C587C+T7S/vyHZUqIV38MKbYhxelXsw+Sc5MhJx2/DFd0cVR/wC7l2IT45K29KiNwarzmX0G+eXttsoMczezKlW864PaEdPkGUn7Dbr7GtMuBvnMHYjTx9VvHu5/aN05jY3KaDYtVyipOnpRV+IxXbkglQrD1wMAAADDYkAJVFKLC9EWf+l21mSEplNKTau5xM718JuqNOrMGnTGWQvi3wwipsxcVKFKSXf6sf6lviaovQF78fGWpHGn7M89T34h6p/JWkvr7qZabCyxuMuGDUWlrxdUVliJpk009o1Ij57Ks66mxc5vPYopuWTLtm3ZRhtxHOyZG6TkkjOT1N7M2ENtV6TQu/VVaLuXWa7d04NKSNGFlKJ6oHvMPgEAAOyqfyV8o83bjlstBoS1NRnhPWY0iplZnVuylViwZS80ztfOlsu5m5YepvNKec6hFltad4e7hmUqIdtO1F8Nbh/dlHiM1o73lMctz6sQ8V57VaVbBY0tNM672/VV17N7/BBuTvO3JpVfiCph5zXZtC5nd7mbBUXsROP+VkrKro4pNRM8rpsxuTNfe+niM9dfIUW9z2WlpKzl3RWweb1V/fj6M1xUevmK8gueZ26zoOz6VaUuBNsrKr12zdkhcaC7DwIAAAy/1z765PXvH3z2QU8bae93dZzBoVr9rhEGrv77Sj1JNLvn0D5zc4vu9vrdX/u1f7vq8HfJAAAAjo/BrYFqKabMivPjpgMfyMIpD/SWx8UzujollTeO0hCbZ07xjPIzYZVXSZ4AAAD2M/Bd+CT51/H0rIwObVtL6/aH+T3LDg8tnjlfyeiRua8AAAA91pcSPgAAAAA4CoashA8AAAAAhhcJFAAAAAAYIoECAAAAAEMkUAAAAABgqM8JVFKLtq3Fuf62CgAAAADdwAwUAAAAABgigQIAAAAAQyRQAAAAAGCIBAoAAAAADJFAAQAAAIAhEigAAAAAMEQCBQAAAACGSKAAAAAAwBAJFAAAAAAYIoECAAAAAEMkUAAAAABgiAQKAAAAAAyRQAEAAACAIRIoAAAAADBEAgUAAAAAhkigAAAAAMDQax998vr3Dz77YNBxAAAAAMDQYwYKAAAAAAyRQAEAAACAIRIoAAAAADBEAgUAAAAAhkigAAAAAMAQCRQAAAAAGCKBAgAAAABDb/allblF2TNhSVWVbs0qvdaXVtEv9fvr2izIupkbXDwAAABAj/T1h3Rj6bxS0yGVVy3NL/elyT6IKbOSUnS0+Z2OrjOeUX4hqq1D2UduXzwlgQIAAMDR1J8ZKFcxM6tiPxvsJ2ZdAAAAgCPv+K6BimeUt20tzg06EAAAAACHRV9noIbKWlq3P8wrNWMrP5HVbKaXc2NOadvFL7O6rRtKTYfc18sqWPPKqVHeWBOesWXPqOk47/kaZYPBtWVJLdoJadXSnYl8y/a6FXd7nLg8q6U8ZY7uNamk7PW0b6bS6Zstf5v7rbuaW5Q9IxWsO5r09lW7M4XxjPILF/Xg1m1pbu/zBO+hKp5rqcWzKiVmwnL6cEMRO6Fw0/3b7/4CAABgUI7vDJSckkJrtazQdEr2SkaxHrcXmk4p9e5dWZYlyyqorLASS8lGLJYl61ZJVTmJhXOcJcuXrCS1aDtJTf391S1FF/LKxP3thWdspS48UNayZFlZlSqN9tqOO3ietvsrpsxKRBtW47qy61WFZ2pxF5VeK0ujF3Ul7v/clQshVdfv1Psgls67yVHtXFmVziRkN11bWAlvX90qqTqV6GDWMaToQkpja7X+LkvB88wt6oZue+5ZQeXRqFK+mMJKxLeVtQoqa1xXV65q+1ZWpUpI0UTtOPP7CwAAgP471gmUJGl5vjHYtRfVfnrhmkrItm3Pfy0GvL5Zi5w2NiWdmWwrEYmlrypcKem2d8Zs+Y5KlZAufhg402ZBVn02p6hHT9tvT5J/JmXXRGc/RaWv+2etil88UFUhjdUmkpY3VJY3mZA0d03R0aoefFG73qSuTYdUXvWey41pKtJ0/8qrVmN2ce2RtiSNT7SfKvs2BFneUDl4nuX5wCxm6/tbXqv1Y0ihp3ebZpXaur8AAADou6Eq4WsqgZJUXQ+U1wVLt6QW5VTNpWJ7l53lNG89VGYlpYRtK9LJDnh92kTi3LshaTSqlG0rFXzz3XOSp/it+s1D39u5m1YHZXeSnj7yb/5R3lZVYSfxaaesrNW980eoO+tXlZp2EqGcpGQkLG0WGolGfFLjkkK+Eseaqibj3piq2i77zz9v9eoe7bIbY8Ufnzee4P2R2ru/AAAA6L+hSqCMdulbnpe1b3LT7kC5lnB1uranzyrN64T6L5ic7MNNnnwJsbtlu1fxiwe6MR1VZE7SclKRqapKt5rvyHBthV9LnvzPT3LJVuJMB6cbivsLAACAVijhi2eUtxMKV0rKHoLk6eE3VWl0TOcGGUR4TCFt6VEbs0+xiXFJZd3db7OOtbTubkrhSFKaiyi8GShzO0AZXu+c09iofOu0OjUU9xcAAAC7OtYJVCydl70QldaznrVCA+YmCOFI69VYxcxdZ/OJPmx60VI8o/xMuO1kofh4S9K4U2JXO89CVKEWx+Y2nE0a7JmwyhvBVnK6s15VaDo1RFvQP9R2RQq920h7kku2ElPtn2ng9xcAAAB7GqoSvr6KZ3RjOtS9UrCphGw74Xups3PnNH9rUvkF7/m8pWE5zVvSop0IrJPp4VbXgWsLXlfT2rXR2vGemJbnVYjYSizYshdq8RY0tuDvM0nOpglxZ0vzOy36r5iZldLOFvS+dVAD+zHjotLLV/z3bLOg7PpVpS60e64B3F8AAAAYe+2jT17//sFnHww6Dgwld23P034nJo3fn+rt73MBAAAA7TnWJXwYTsklZ/bpNskTAAAAhszxLeHDkPFsPc8udAAAABhSlPABAAAAgCFK+AAAAADAEAkUAAAAABgigQIAAAAAQz3fRCISmdKTJ0+0s7PT66aMvXc23JWYXv3uVZciAgAAAHAYMAMFAAAAAIZIoAz95d+tavXv/nLQYQAAAAAYIBIoAAAAADBEAgUAAAAAhkigAAAAAMAQCRQAAAAAGCKBAgAAAABDJFAAAAAAYIgECgAAAAAMkUABAAAAgCESKAAAAAAwRAIFAAAAAIZIoAAAAADAEAkUAAAAABgigQIAAAAAQyRQAAAAAGCIBAoAAAAADJFAAQAAAIChNwcdwGHx2V/P6LNBBwEAAABgoJiBAgAAAABDJFAAAAAAYIgECgAAAAAM9XwN1JvvvKl/VR2R/vDansftVF71OpSue+tP3+rauV797vBdPwAAAHDcMAMFAAAAAIZIoAAAAADAEAkUAAAAABjid6D29Jf6+S//J01Jqv7Xf6+/uPWbQQd0eMUzyi9EtbVqaX65980ll2wlzpSUvZ5WsWtnjSmzklJ0tPFKucX1xNJ5paZDjRc2C7Ju5qS5Rdkz4ebXuyKpRTuh8fWsZjPdu2IAAAD4kUDt6TP99MefSf/m/9B/+l/+rVb/bkozf300fk63aZAvSZVuJxy9s2uS0kPJpZSiKilr7dFHc4tKTUulW5bSa4H3ludlLUv1RKyn0QIAAKAXSKBM/Jf/U3/xXwYdRA8EEqbkkq2UndeVW7PNg/8hklyylZgqq2DNq54yzS0qn471cPYlqciUVF7dO8FMRsLSZmGo+w8AAACdYw3UoRNTZsWWvZTs+plzN7MqVUKKzmUU6/rZu8VJZKrrd+Sbb1qe723pWnxS4/seFNPkmd6FAAAAgMFjBurQKSq9fEX5hYTslckul9wVde/LG4pOX9SVuFSszaIYrt1xZoZq/6qqtM9MVv34DkoHQ++ek/b7xNNHKvpib561smfG/XH2ea1Wa8G1Vq370t/ftSMBAADQS8xAHUZrac1aBZVHo0rZeWXi3Tt18fGWpJDG3Jwjls7LnpEKliXLsmRZWZXOJAIzYM6smFNWVzvutpTYfSbLGfxXVbplyWorecrpznpVmkrI3u/apxKy49vK1uKuhJVYaWd2zZ3ts23ZC1GFJIVn3H/btmz3XLF03n3NTXqmEo1j2r4/SS3aKV38Muv2oyVrdUvRBe953P4+U3KvzZJlFVRupxkAAAB0hATq0Mpp3rJU2AwpumBrca4XbSR1bTqk8qpn1kZFpdfK0lREtRQqlr6h6GhVpVuB4262Soy8yVZna62KmVlZt0qqyrl227aVT7dIi3wzW0Xd+7IqjY7pnHlLSl93E5RbJVXl7LpXT2zccxczs43ksiJnhq6e2LR3jbH0VYUrJd32liMu31GpEtLFD91rnLvm9Pfy4djwAwAA4CihhK8b/uLnWrUCtVRf/+fAjn2NLdEbNvWff/xTNY5q3iZ7v1K43E1LD9N5pWZs2ZFu7URX1XZZ9XU/oRlb9kzzMZNxSWvSuXdDUqWkewaJQngmpbCCyVYH1tKaddtLLtlKTKdkL53r+U58vXbu3ZA0GlXKtpUKvumWLcYmxqXKA6P+BgAAQHeRQHXDf/qpZv7Tfge5W6Lvqaj09fbmFGrrYFr9HlEnYhPjkrb0aE2SWzLWrXM758pqO55SdGFRybUDJlGuehI5fVWZeO7w74B3iLaTBwAAOG4o4Tu0aqVwzjqi7iQ4TsmeNjecxGbtkbYkjU/svWro4TftlMYVlb5eUFntrkc6Hoz7MniM0S6BAAAAOCgSqMMonlHerv2oa7d+sympRTuhsMoq1MvgnA0bQtOpPddYFTN3WyREMWWWdkuQcpq/VVJ1NKpUu0lUPKN80xbutcTvbnt9Ud5W1bNhRm0HvtCeH+qt1n0ZOOaLB6oqrKu1dV9DEDcAAMBxQQnfoRNTZi6q0C5bibclsNamup6VFfgtpWJmVqqtsfKug/K1n9O89VCZlZTnfM7arV3L0NbSmg0vyp6JKmUv6pxlWM5X+5xt+15uFbvJuW5/6L22sgpWQRE70d55DMXSeaWmPWnOaEK2nZB/nVtO85a0aCcC66A8x9T7LiXbTrlxZzW5ktLFnkQOAACAmtc++uT17x989kHPGvjv/82/1tbWb/WHP/xhz+N2Kq96FkPQe2fDevLkiXZ2dvrW5n5e/a5/1w8AAACgM5TwAQAAAIAhEigAAAAAMEQCBQAAAACGSKAAAAAAwBAJFAAAAAAYIoECAAAAAEM9/x2oP/7+j/rDdztDtWX4MIr860hft1b/3avf9aUdAAAA4ChhBgoAAAAADJFAHXF//ve/1C///s8HHQYAAABwJJBAAQAAAIAhEigAAAAAMEQCBQAAAACGSKAAAAAAwBAJFAAAAAAYIoECAAAAAEMkUAAAAABgiAQKAAAAAAyRQAEAAACAIRIoAAAAADBEAgUAAAAAhkigAAAAAMAQCRQAAAAAGCKBAgAAAABDJFAAAAAAYIgECgAAAAAMvTnoANBb//Dvfqx/GHQQAAAAwBHBDBQAAAAAGCKBAgAAAABDlPAdU3/61p8aHfe7V7/rcSQAAADA4cEMFAAAAAAYIoECAAAAAEMkUAAAAABgiATqSPpz/e3qL/XL1V8q9zf/w6CDOYKSWrRt5dOxQQcyOPGM8ratxbnunzqWzsu27fp/x7qfAQDA0CGBOpL+QX8z82P9+D/8v1L0hn75938+6IB6IKbMiu0baPdiMI/+K2ZmZVmWLKug8l4H9jCJAwAA2A278B1lxZ8pWRx0ED0Qzyi/EFVosyDreq7+cnIpr0x8Vum1AcYGAACAI40ZKPSJO2O0lDz4eeaiClVKyt7M+d7J3SR5AgAAQG8xA4U+KSq9fEX5hYTslUllr6fV0eRY/IoujkrlVYPPzy3Kngl7XiirYM3LM2elRTshrVq6M5FXajq0y3FScslWYsp/+mqguVjaew7niNKtTpI6Jy5f5KuW5pfrLSmzktLFL7OafXzNc40t2gv2wWZBViDxNOO0GR3dJ/JAP/njds8U7KdKqa3nIfj58Iwte6beYtO9AwAA6CZmoNA/a2nNWgWVR6NK2Xll4h2cIzymkKra3nNxjJwyv8iGu5bGkmVlVaqElVjJKLglQXjGVurCA2W9x9VnypyZs8SZkvv+Lmtz5haVmpZKtyxPm50kTzFlViLasBrnya5XFZ5p7q/QdEr2jFRwjytshhSda1xfLJ33vW9ZWZXOJDqYBUxq0U4p+rTQuLZbpUAC6faT/MeMzwTWKM0t6oZue/rIfR7aiKm+RsqNobzq7XOSJwAA0FskUOiznOZrg/2FHm4AsJbWrG+mpah7X1al0TGdCx67WZBVnwEp6tFTSWcmnURk7pqio1WVlveeIYlNjEva0qMDlxAWlb7uTwKKXzxQVSGNhQOHVkrKehKGh994ry+pa9MhlVe95yoqvVaWpiJqJ4WKpa8qrLIKe81czV1TdDRwzFpadzelcMTT2vK8ZjPensxpY1ON/gYAABhylPAdZ//z3+qX/+N/53/t//t/9ON/9w+eF5rLyZrLpFqVd+1dvpa7aelhOq/UjC070mlZ2d5ald21Uv3mYVNstWhiE+NS5YHu7ZMYFTN3dc1OKGHbSnRcuudqKj3cxdNHvqSumJlt/Ds+qXFJIV95W01Vk3FJhvGdezckbW7sObPjJJAh9/oDKk5y5MS2SylgxSwWAACAQSOBOs7+49/ox/9xv4Nymrf2S26KSl9vb0VTLblptUZmT+VtVRV2ZmP2SACc8/sTGWftTFthtqHWT26CsGDLXujg+tzkqbqebczUuLsOdqLt9g9kv/VHteTJf1xyyVbiTH8iBAAAOChK+NBn7lqZqapKtzoY3K/d04OKFI43r2XytjF5RtLm3e7syhcs+3Nnd1orKn29tpYqUL5mwJnJKetu5oD7z6890pak8YkuFcYFS+zCY/Jul1F8vCVp3JnZ2tU5jY1K1fU7rFMCAACHFgkU+ieeUd5OKaqSsh1tsCDV1/G02HjA+R0o5xjfOia12iHPsLUvHqiqsK6mY41rWIhq/zO5yUKgPHDf9oKJiHF7QTndWa8qNJ068Dqz3IbT39dq52lVYrh8R6VKSNGFxT3WVz3UdkUKvdtIR03LLFtyk8R2k1QAAICDeO2jT17//sFnH/SsgUhkSk+ePNHOzk7P2mjXe2fDQxfThfcuDF1MkvS7V7/r0pnc8q2n3VrvtN9W34H3KyVl18aUmpGnfMw5ZtxbLteKL2Eoq2Dd0WRtG3H3cy23Od/vvLtdme9cVZVu3dXYgrPdunN95n3ZMnHsYCtz33kqJWWvP9I12xuTJ67A+ibffQkmhJsFZb+56uyC6G7ksXtS1aJEsCnBZBtzAADQWyRQQ+LoJ1AAAADA4UcJHwAAAAAYIoECAAAAAEMkUAAAAABgiAQKAAAAAAyRQAEAAACAIRIoAAAAADD05qADwHB649Qp/ejqj/Tr3/xalUpl0OHU/XGIYgEAAMDxwwwUAAAAABgigcJQuvzxp/rVL1K6POhAAAAAAA8SKAAAAAAwRAIFAAAAAIZIoAAAAADAEAkUAAAAABgigQIAAAAAQyRQAAAAAGCIBAoAAAAADJFAAQAAAIAhEigAAAAAMEQCBQAAAACGSKAAAAAAwBAJFAAAAAAYIoECAAAAAEMkUAAAAABgiAQKAAAAAAyRQAEAAACAoTcHHQDQyuc/+4k+H3QQAAAAQAAzUAAAAABgiAQKAAAAAAyRQAEAAACAIRIoAAAAADBEAgUAAAAAhkigMJQuf/ypfvWLlC4POhAAAADAgwQKAAAAAAzxO1DAnmLKrKQUHZW0WZB1MzfogAYoqUU7obCqKt2aVXqtN63E0nmlpkP1f1fXs5rNFHvT2BGTXLKVOFNS9npave8x53kY78n9qT1rNWUVrHkd528fAGB4kEABeyoqfb2o2oDOXpns0+C0H4KDVEd51dL88kACkiQVM7Nu/7oD9MGFgoHJad5y0iUnod79yP4mjQAAkEABhhoDuqPGlzDFM8ov2LIjrWbbjm4fAAAAmGINFHAIJZds2SsZxbp94rW0ZlfL0lRCi3PdPjkAAMDhxwwUcAjlbhYUsRNK2Ys61+21IcsbKs+EFY4kJeVkvh7Fs16spuItrXLev/hlVrd1w7POqcP1LXOLsme8BYje87gxt1i31lzytV/c7Uku2UpM1f7Var1Yc+mkv2yy0U+zj695rrHFuZr6QFIlEFCLYzot0/RfWy2qfdprtXZwz3tnFEmgD6NK2bZStZhYNwcA6CESKOBQymneeqjMSkoJ21akq+uWHmq7IoXPTComqWi4HiW5lFJUJWWtvROP0HRKqUrtOCdZSKxk9LCdhCWeUT6yIcuad18InienO+tXlZqOqJYGulEqMiWVVxttmca9v1oi5k0GYsosZRRb8yZrEW1YluqRp/NKzeSVKfuTo9B0SrbKKliWk8Yu2UrMNc5VuxelW1b9c05yGOinmXAX1rW51+brp+Y1ak5MW/WYa5+zl9RIova9dyYazyRroAAA/UYJH3BoFZW+bim7XlV4xlY+3fWCvjbENHlG0tNH+w9ifbM7RaXXytLoRV2Jt9HcWlqzvlmNou59WZVGx3Su9soXD1RVWFc9/RJLX1VYZW14ZnuM495HLH1D0dGqSre8MylFpW96B/ZFpa/7Z1qcOEMaC+7mUSkp65mVefiN9/qSujYdUnX99t67IYbHFFJV2+UDXZo0d825tuW9khQnpvJq4PrXytKUk8hKMrp3AAAMM2aggK5otaNdsCypRalYi7Ks4Dbe0t4lScXMrIpzi7JnUrJXrnTvL/FtJRVFpdeuyZ5JyLYTe5fABc9b3lZVYSeBaGNr9FblZD5rad1N2EpcuKKYiioqpisXQqqu3wkM8A3j3se5d0NSpaR7+11Dq7K7VgL91NidUFJ8UuOq6sEX+0S6fEeleErRBVv2Quele7GJcanyYO9ri09qXFJoxpY9E3yzqsm46vd333sHAMAQI4ECusJkh7raluj7HOUdKBuoJVzdW/dxTmOjUvXLh+19bHle1rLcnfxqa1JM17a0N0viDMD9yWer8sLcRlmJGWd2q6grujha1t1gHx0o7ja5yZPvXrnt9jyWoN0AACAASURBVEbjmUsu2Uq4yU0v1wjtl6SZ3jsAAIYVJXzAIZZcspWaDqm8anVtQOyUuRnMbuxmLa1Zy5J1q6Sqworst5tfeEwhbemR8eyTW3a3eXf/H/NdvqNSJaSLH8YU+/Ci5Jt9OmDcAf4Su10inxiX1CKJ60iw7M/tl13kblqyLEuFTSl04Ur7OzgGr82dcapbe6QtSeMTe525jXsHAMCQIoECDqWkFm1biSlnk4FubSDRmM3aZ22NCZP1N+4mB9W9EpsmRT16Ksnd5EJqXfZYO/bel1Vn44ppmSWFHa4bKmbuqqywEr7t5d1NJGrHPN6SNO6Us0n12adWke9p7Z4eVKRwvHbuVuWhrXS25qtpPVnLuHO6s+709e5b4Ldz78w4iWuba+gAADgASviAQyi5lFD4AOt1vMK+NSstSteaBsthJWxbCXlLwVqtAWu1hbekKXe9Ua3FQMlX0/qY6ZRsO+WLrbGNu7t1daWk7OqYUk1rb5zE5pqdULjlrEcbce+rsTNiY0tt51z1e7Q8r0LEVsJdk+S8X9DYQmKXc+6mqPT1c1r09EF51VJ2Iq/UhcZRLZOTVtuK72ctrdmwu86ufi+ymlxJ6aI3qsyslM4rFVwH5WnT6N4ZPXONNs8tefuUbcwBAL312kefvP79g88+6FkDkciUnjx5op2dnZ610a73zoaHLqYL710YqpjeOHVKP7r6I/36N79WpRL8YZneu/zxp/rp+X/Uz/8qq889r/9xALGgW9xZkqcdDOAPxEmS1NWt3gEAwHHFDBSAIyymzIr7g7okTwAAoAtIoAAcPd4SsE5K1gAAAHZBAoWh9PnPfuIr3cNRYLaNe1espTXLLm8AAKAH2IUPAAAAAAyRQAEAAACAIRIoAAAAADDUlzVQJ06c0BtvvNGPpowR096ev7GjF9+/0FtvvaW333570OHU/csf/jDoEA6Fv/27/0uS9Dd//b8POBIAAICjhRkoAAAAADDUt134Xrx40a+m9vWOpJcvXw7Nj9ZKkt4ZrphefP+9JOnVq1cDuXe7/pDuP/9z32MZZrF0XqkLD5S9nlar/e3+mf4CAADoKmagAAAAAMAQCRQAHFEnxs/r0qWzOj3oQHC0nT6rS5cu6dL593Vi0LG00LvvwQm9f/6SLp3lGwYcN/yQLoBD7cT4eYXPjOj54/v6+lngzdNndWnipHaelvXV1suBxLe3E3r/fFhjI56XdrZV/uqJhjFatOfE+HmF33nedD+dZ3ZHj+9/reAjezS5z/nOY91v+pI2nD57SRMjPP8Ahh8JFIBD7eXWI22/E9bYxFmdfuYdkJ7Q+z84Ke1s69FQJk+S9FJPvrqvJ/V/OwPN8HkxiMTh8exr3T8emSAASKKED8Ch91JPvn0u6aR+MO4pIDr9Q42N7Gj7vx2mRMS9lpGTOj08vx4AAAA8mIECcPg9+1qPT13SxJkf6vTW13pWm316/lhPfJtINpfM+Uv/Wpca9b+0aEcvO9n88u33dX5qTCO+F4M7e57W2UsTOul5pdEH7vWr+VpblZ3Vyie9bW1vfhXocxN7xbT7Ma3abIrp+d5lY4Pn9PnJ35f1SJOe2J+3LPE7ffaSJuqd0Kq/g/3kPabW1mM9f2dCYyPSzlNPu25f1UoPH//+pCbOjDhlpf9Nmpwa04g3LrdEti7Y18HncWRCly5NeA6/r6+fBeMdU/jSWCP6YPntfm22atfth44Ez9WivZ1XL/zPXasy3GDcwft7+qwuTUiP73+nU57+aLr+ltfWfD7/c9Lq+9TN7y9w/JBAATgSnv3Ttn5wckw/GD+hZ69qs0/eEYM7UHv+WPe/cl8/fVaXJi7p/FvDskbqtM66a7baHvK7A7Tnj++rdnnOAMl70Am9f/6Uvrt/X1/Lc8zEeb3/8is9eeHMgI1NODNgjYHUCZ1+Z0Q7Tx/5BnzhM9L25v0DDrj2i0ny3Tt3FFi7Nu+Azxk0Ptfj+1+5cTqfu3T+RAfJrzfZ7v3AcuRMWOHnj3X//jPV4p44e1rP6qPeWjzegfIJvX/2fZ342r02d3Ctp2Xdd5/nE+PnFZ66pBHPAHrkzIRGHt9X+a3zCr8zqcmdb3X/8SldmviB3n/7mXPukTFNvPVY9zdP6PzUSU1+sKNv7z/WqUsTznds66WndK+WeAe8eKKv7j/R3mugnulrt/5vvz9UNJL4+43rPx/WpbNqnNfoe2DIs4ay1p86fVZnTz/zJSOt7l347MtGTG+/r/OnvtP9+/UnXO+fD2vi/Pt64bvWk5q4NKLtzfu6/6IW96Ter7jPXov723jmv/b1ydhOLZ7a5y7prDxJVNe+v8DxRAkfgKPhxRM9erqjkTOTOv+Dk9p5+sg3MDgx/gOd1HM99o58nn2tx8+lkXdOD3D3MHcnr0uXdOnShE52tGarMeO292TLSz35yj+r8bLyXDsa0UitA559p+ca0dh7np3F3HLI55VGXCfeGlHHM2XtxvT2CY1Iev7dsz2OeV9OF3jP9UxfP+6sJPL0We9M5YjGpnq8m6FvZuOZvnsuaeRE/bk8MT7p/FFg03t9L/Xk68YA/PR7YxoJPD8vtx5pe0c6ecoT/c62fls7yYj0/J9aPTQ72v4nz0G//+2AN7w4rR+eGQncX7fk9eQp996Yfg/M2js74ZzL98eVZ183n3ufe6cXT/SV70Mv9ez3O9LIiPyPpT9Rb3rGT4xoRP7v4TOnMZ2onej0D50k29veiydyuqnxDHTv+wscT8xAATgyXm59q+dnJnRy5LkeB5KQt98akZ5/2zQIfPbdc01MOAOZwcxB+TeSODF+XuFL59uc8XhbIyPS828NRo1NpUSORoHTM/326Q908swpnZYzG3H6VHM5ZK2vJy5d0sRBZ2j2i+nFS+3IHQA+c//OPnpSI3qu+iWfGPH/u3453+n5xIQzCDWO74RONNVIuYPUAQ04337LKaV7tmv7Tsw7v38WeI6dwfrYOyd0ohb8zku9lNwBvjuIbvoLgvu6OzDfefWy8Y9BcJPokYlL8lQBunbce9PG98CwPW/SfhDBkjpHm2WFL3e0o5M6OXpCeuHOQJ066XsunMRoxP1eBptzkrqX6vL3FziGSKAAHCHP9N3zCZ3Ud4d2e+j6roLvndaTbq/dabWte60syBtD5bl2zozJyVdO69TJHW1v7lZ65ZYMTV3SmFqvtTh4TC+0syPppHcNTXA2ppte6uWO5F9owl/rh0Hbz9cQcJKnVmv12jxR7Q8JZ8K6VP/scz2+Hyx5bL1+zq9L31/gmCKBAnAsvHi1I3lmVWpqf8EdtrHxzqv2Ixp5q/b3ZcfbbplOjfPX6ef6dr8SwRdP9O3zMU2cOi3plE4+/1b3dw2nNoPmDsQ8s0QmjGKqlSXtNSh8uaMd1ZI+72dP6aR2tN3m9OKzr8s64VsD1WGyNtI8u7nbbOheXrzakU7uNVPqJH1j75zWiS3vgNpZv1abdTq03OQh+Iy3st/3oNvt7c2dzXz+7YFneE6M/0An9/mduJevnMzffLb0YN9f4LhiDRSAY8FZT3BSE2e9a3vOauKk9Pzb2oCkNvPQWL/QuvTGcWL8vLN26Wz3Vsc4a28MkhwfZ93FyJkf1tfptIrbN7iS9tjRy11bcXLCWZBvVMbklE+1m/iZx+Q5ppUXz/R8Rzo54V2rVFvH0sng1RlY3r9/X/fvd1be9HLrWz1v2l7ffebaLA2rnWvi/Pueajt3Ewn3X8++ey6NjGnS01597VTLdU794n6v6muVWnvxameP9WrP9NunOxo5E9buXzez74GZXdo7fXaP9ltp/n9K8+53bWhaNxXw7Lfa3ulkzV5n31/guGIGCsDx8OKJvrr/0tmVzVcG5t+F6tnXzk5jta2Ud56WVX41qfA7zaesDf510tm9rO1Bdqtk4bln96w21GZMamsfdp6Wdf+7H/rXi9S2e3fLdZzrf6yRqabVEs5A7AcnNSbPhgMerQamTVsumwW+f0xNx7Rq00l4Xp695Fv/4dtBre+e6ev70tlL3pKr5mfO/FwvnB9arm/z7ZSF1a/u2de6//J9nZ8Klnj1ptSxKRGob1PevKYm+HxKzeViL7e+0uO3/PfZ+0y93PpKZZ1XOLgOyrOJg9H3wNDLra90/5WzU+elRtCqb6ZnKPj/FO1sq/x4ROE2Y6qV97Za39Toy5d68lVZOt98nLe/u/b9BY6p1z765PXvH3z2Qc8aiESm9OzZM3333Xc9a6Nd750N68mTJ9rZ6fB3IXrgwnsXhiqm5ye+15/92Z/piy++UKVS6Xv7lz/+VD89/4/6+V9l9bnn9T8OIJZhFkvnlbrwQNnraRU9r//f/+HfS5L+t//13w4msGOj1dbSR0Xj94kGPahq9RtUjdfFAngcC7tt8968lTmAXqOEDwA6dfqH7o+RDnqL5+47fdb5Qd32t1TvPmcNy26vs7kDjoNWO0N6Xt/ZGbp1nMBRRgkfALTN/WFXHbVdqxrXpX0Wq/dTq/IvSU6MTTuQAUfRSz356rFGvKWANc9b/UAxgF4igcJQ+vxnP/GV7qG1YmbWV7qHfqltAXzUDOt1+X8rCziehvX7CRw/lPABAAAAgKG+zUC9/fYAf8G8hRMnTuiNN94YdBg+wxTTv5z4XpL01ltvDdW9+5c//GHQIRwqf/InfzLoEAAAAI4UZqAAAAAAwFBfZqBevnw5NNtzS9I7Gr6Y9M5wxTTyr07p7dfe1qtXr/TixfDs7fPHf/7nQYdwKLB9OQAAQG8wAwUAAAAAhkigMJQuf/ypfvWLlC4POhAAAADAgwQKAAAAAAzxO1DAoRNTZiWl6KikzYKsm7lBBzSkklq0EwrX/11WwZpXz3prblH2TKO1Q3Nv5hZlz4yrdGtW6bXBhBBL55Wa3urt/emLPj9zAICBYAYKOHSKSl+3ZFkFlacSslcyig06pK6LKbNiy7Yb/y3OtXuOnOYtS5ZlKbte7UWQfsvzsixLlpVVqXLw0yWX7CN6b7ura/0Uzyjf0XPm1ednDgAwEMxAAYdWTvPWEfzbdjyj/EJUoc2CrOuN60su5ZWJD26WBAAAQGIGCkCXdGcmIKbMXFShSknZQPlb7ibJEwAAGDxmoAB0Re5mQRE7oZS9qHOdrvuIX9HFUam8mlZxv2ODa44Ost6kNutV+7dv/ZK75uypf01TcslW4kxJ2esGsfoE18lI5VVL88ut3osqZdtKuf+qrmc1m/G01rV1V1t6tOZvuxFTjWftXct4nPcvfpnVbd1QarrWmy3uS7C/29ZePzlrrDytefop+F54xpY9U/tXMPa97h0A4LgggQLQJTnNWw+VWUkpYduKdDKwDI8ppKq2y/scF88oH9mQZc27LziD98RKRg/bTWjcJKS6npVVG3TPLWpxTj0YGMeUWYlow7JUjzydV2omr0x5Vum1RlnmfglaY+MFyx3gO31gL6mDJCqshD2u0i1L82vBmOTGc0NatmTVZgHnFmXPpLQ4V/T1U2g6pdRmQZaVUy3hSCwllavF5Pa3N/FwrqWdeM37KblkKzHlTYScmOyVSeczmVnnc25St7Xrc7vfvWsnfgDAYUYJH4Aucja4yK5XFZ6xlU/3aAuEtbRmfUlCUfe+rEqjYzrX1omSWpwJS5sF/8zO8nyPZhWKSl/3z8YUv3igqkIaC+/6oRaSujYdUnnVe66i0mtlaSqiZNtxVX278LWKqamEcnlDZUnjE4F77JsFy2ljU9KZSbe0M6ZM3OnvvszaxDO6OqVAP+U0v1qWRi/qSrydk3Xr3gEADjtmoIAjq7ncqLkkqbksKziYllqUQKlFOZlHMTOrojtDYa9c6aDMbX/OzMIBTxKf1Lik8kYfN+NoKj3sgBt3yFduVlPVZFxSt2dEdim7a2+vuXMaG5XKa33q7/CYQiprI5isLW+oPBN2Ep92+qkb9w4AcOiRQAFHlskufUWlr++f2tTLnAzVEq69kqyWytuqav+BrZM8+RO99svABsBTLljvFzcx6UTf1t94d0aszy45Cfp4H5ofCl2+dwCAw4sSPgBdlVyylZoOqbxqtZc8SdLaPT2oSOH4Xrv5xTR5RtLm3YOvO1l7pC21KEPrkdjEuKSy7rbbL0F9jru2Nq1U6M7MUTDuc+92vp3EntyEPBL8bae5iMIma+08unbvAACHHgkUgC5JatGuLdjvdGbEXcczGlVqyb+Sx/kdKOeYR0/lWVfTusTQTE531qsKTaf8P6DqbiJRiynYXqflg8XHW5LGnRI7ac/d6B5+U91jnc4ucfdKeTuw1qdVeagJZ01UaPpafZ3WQUsx9+ynWkI+s+hZF1Zb9xZIwN2kNBxpvYKsnXsHADjaKOED0BXJpYTClU629Q5Ynpe17O6UZifqL5dXnR3iJO+W6e7W1ZWSsqtjSnnXAzUNcMNK2LYS8q/faqzX8qwn2izIutk4VbC96npW2W9uKHWhcUxTEjdai99Targ8r0LEVmLBlr0g972CxhYa11lTzMzq3JL32Oa4lc4rFVwH1fFW5ntYS+v2h/62yqtZleIpXWzzVLmbWU26OzXW7oW1ca3FWi4ze/eTU6KaXLLr7dXet5pmknKavzWp/IL3ufOsGTS5d4bPHADgcHvto09e//7BZx/0rIFIZEpPnjzRzs5Oz9po13tnw0MX04X3LgxVTG+cOqUfXf2Rfv2bX6tSqfS9/csff6qfnv9H/fyvsvrc8/ofBxALAAAAUEMJHwAAAAAYIoECAAAAAEOsgcJQ+vxnP/GV7gEAAADDgBkoAAAAADBEAgUAAAAAhkigAAAAAMAQCRQAAAAAGCKBwlC6/PGn+tUvUro86EDQtlg6L3slo9igAwEAAOgBEigAAAAAMEQCBQAAAACGSKAAAAAAwBAJFAAAAAAYIoECAAAAAEMkUAAAAABgiAQKAAAAAAyRQAEAAACAIRIoAAAAADBEAgUAAAAAhkigAAAAAMAQCRQAAAAAGCKBAgAAAABDJFAAAAAAYIgECgAAAAAMkUABAAAAgKE3Bx0A0MrnP/uJPh90EOhIMTOr4qCDAAAA6BFmoAAAAADAEAkUAAAAABgigQIAAAAAQyRQAAAAAGCIBAoAAAAADJFAYShd/vhT/eoXKV0edCAAAACABwkUAAAAABgigQLQBTFlVmzZti17KTnoYAZjbtG5fvuY98M+kku27JWMYoMOZFDiGeVtW4tzZofH0vkBPU9JLbYR52Hj9Oui+JYC6AQJFIAuKCp93ZJlFVSeShyxAbInOdwrQVqel2VZsqysSpXBRIpjqM2EzFQsfVXhSkl3lrt7Xk8LzveKPzQAOITeHHQAAI6SnOat3KCD6I3NgqybtWtLatFOyF6ZVPZ6WsWBBoajrJiZHcDzFdOVCyFVv7zHsw0ALTADBeCI6uVfuHOaXy1Loxd1Jd6D0wODNHdN0dGy7mZInwCgFWagABxRRaWXryi/0KOZovK2qgprLCxprZ0POrNXYe+pVi3NL0tO0pdSVKWmeGPpvFLTWypY86rP8c0typ7xnMk3S1Z7XypYdzS5klJ0dJfjWsTUfIwp9xpqbansj1mSnj5S0Rd7i2OaYqqqdGtWaV9fB9vy9qXnqHReqemQ55UW54pnlF+Iqn5UpfkedK+fqtou+2Ovrmc160lYgjHv9354xpY9U/tXq/40l4yEpc1Cx59vei7luS/Bfh5NyLYTzcdJanV//f3gvH/xy6xu64anP1pcf7BdADgAEigAR9daWrNrzqA3Zed1pWkAfgDhMYVU1Xa5nQ/FlFmJaMOyNF97JZ1XaiavTHlW6bWi0mvXZM84M1vFtcbnrlwIqbp+pz4obCRUlvuaM5i0lxQY0IeVsFOqrmdlZYruQDKhxbmcJ2lLKNxxwuTlJhiVkrJWLflIanEpKXnPPZWQfaakrDWvoht3YiWjh7WExR3sqhZz7XoXbC2GawNst63Ngqzr7rnnFmXP2MpPeAbZc4tKTUulW9bu935uUfbMuO+Y5JKt1EpGqidR3eynkKILKZVXLVnLtfZTWpwr1pOHRumec53jgTPU33f7aqtF4tiReEZXp6TyaofXGM8oPxNumchKcr+TUj05erp7fyaXbkjLlqzafWvRT5IUmk4ptVmQZeVU66/EUlK5m97nwh+T8/3p7BIBgBI+AEdcTvOWpcJmSNGFLi22dweJ2rzbZkJWVPq6/y/jxS8eqKqQM5MlScsbKiukaMJTejh3TdHRqh58UfvLe1LXpkMqr3rPVVR6rSxNRZp2FiuvWo2EYu2RtiSNT9S2+TinsVGp+s3Ddi6kpeRSQmGVVfDN3OQ0Hxwg+2Z3irr3ZVUaHdO52nkSUYUqJd32zLgUM7dVqkjhiHN1sfRVpy3vuZfnVdiUQheu1DcxiU2MS9rSo13vU0yZeFjV9du+e5krlFT1lWh2r5+kwEzL8obK8t6TwYl9eFGhg2we0dEfFlrL3Qz8wWO3fvIltTltbEo6M+k+A8791WahOwkmAIgZKAB91aIEqqncxuSY5tKe1iVeDbmblh6m80rN2LIjHcwiTO1VatSGFuVNgUh1Z/2qUtNOIpRTo6Sqfm3xSY1LCvnKtmqqmozLU1YYHMwGN/qotZeSbacOVLo3eUbS5kbnpV+e8zRvYFDUvS9vKHrBGRifezfUsq3cRlmJGScZK0oqZu7qmp1QwraVaPmMOIlRqHb9AY0SzW710zBzEvPq+gE2j1i+o1I8peiCLXvhAN8Tadeyu2pbJ3Hub3ntqN0rAINEAgWgj0x26TM5pqj09faGeMklW4mpAwzoujFgdpMn3zqOWrmaR/GLB7oxHVVkTtJyUpGpqkq3mts+0ODU216tHGxuUfaMmyi2XAN0GNWeJzfp3mVgH1xj1MrR7idJcxFnVu9Am0c0vpvJJVsJN8k36V+fWvLUYvfLYDkjAPQbJXwAjjhnN77EVFWlW11aJ9JpJBPjkgx2N1tL6+6mW642F1E4WCrYVIbXJbXfsupoh8GiHj2Vp3SqU855vGV4DmcdmJ4+UlHSw2+qLcsVk5GwVNlWc6Fd7bfKsr5SQOmhtitS6N1zTZ/Y1YH6aXg5M50HnUFsyN20ZFlWU1mlEbcUsFToTjTB78q5d9lOAkDnSKAAHF3xjPK2u6ud1cUNJDpUfLwladwpsZP23Bkst1F2ygZnwipvNBWq6c56VaHpVNd/QFUyWTfUmrNuKKqUb+t4dxOJds6zUZZGo7qRbgx6Y+kbio42BtTO2rGwEt5zzy06s4xre80IBdcy1daOJZRPt5f6ddpPXeUm042EsEPxjK5OdS9haXBLO93Et8FNuFskwZLcXS49awNblvaacNZEhaav1dupzUYDQKco4QNwRMWUmQuWAPWwteBW2fXtmT3rbpbnVYjYSrhlZM57BY0tJJpPWFtLotYL+ouZWam2psu7Dqrd622ZxHW4DbZn18PGejHnXG1ZnpdVzii/4F2XFIipZVvVpt32Wg2Wm8rJludlydnhzbcOylue181+MtAUd32NVrDNnOZvTTrb9Qf6vJ24nM0jHujeAZPB5i3jteszmbuZ1eRKyl2f5qiXVq6ldftD//NdXs2qFE/pYpsxBduprmdlbVxrsX4QAMy89tEnr3//4LMPetZAJDKlJ0+eaGdnp2dttOu9s+Ghi+nCexeGKqY3Tp3Sj67+SL/+za9VqVT63v7ljz/VT8//o37+V1l97nn9jwOIBRiMxm/ctLV2BGibu7ao3XVKAHBMUcIHAEMoueTMPt1mQIteczeP2HdtHgBAEiV8ADBEPOs8jtLubhhuy/POD/oCAIyQQGEoff6zn/hK94DjwWQLdwAAMEiU8AEAAACAIRIoAAAAADBEAgUAAAAAhkigAAAAAMAQCRQAAAAAGCKBwlC6/PGn+tUvUro86EBwJCSXbNlLyUGHAQAAjgASKAAAAAAwRAIFAAAAAIZIoAAAAADAEAkUAAAAABgigQIAAAAAQyRQAAAAAGCIBAoAAAAADJFAAQAAAIAhEigAAAAAMEQCBQAAAACGSKAAAAAAwBAJFAAAAAAYIoECAAAAAEMkUAAAAABgiAQKAAAAAAyRQAEAAACAoTcHHQDQyuc/+4k+H3QQODJyNy3lBh0EAAA4EpiBAgAAAABDJFAAAAAAYIgECgAAAAAMkUABAAAAgCESKAAAAAAwRAKFoXT540/1q1+kdHnQgQAAAAAeJFAAAAAAYIgECsARldSibcu2beXTsUEHA+zBeVZ5TgHgcOCHdAEcUTnNWzkpnlF+ISV76Zysm0ft53RjyqykFB1tvFJdz2o2UxxcSPuZW5Q9E25+vVJS9npaQxy56v39tHAEnyUAgCkSKABH21pas2uDDqIH4hnlF6IKbRZkXW8M5pNLeWXiRaWH+pqrKt2aHfIYAQBojRI+AOibmDIrtuyl5MHPM+cmT4GZkNxNEhMAAHqJGSgA6Jui0stXlF9IyF6Z7Lxkbe6aoqNVlZYNysiaSubKKljzcj6Z1KKdkFYL0kxCYUnlVUsbEVuJqeZywOSS83r9TKuW5pc7uYC9NMoSfeevzbgFSv3MYgqWOnr7wD3HGf95Y+m8UtNbznG1tmsfH03IthO7tBlsq/VsWzBu50gAwGHADBQA9NNaWrNWQeXRqFJ2Xpl4+6eITYxL2tKj/Waa4hnlIxuyLMv9L6tSJazESkbe7QrCM1e1fctSYVMaj+d19ZussutVhaavyZkrc2bOEio0znWrpPEZW4tz7ce/t6LS17MqVaTwzGKj/blg8mQaU1KLdkpRlZSt98OGIu3MAq6lNVvvP0mbnjYtb/LktHXxy2zj/dUtRRe899mN+4w3noLKB+ozAEA/kUABQN/lNG9ZKmyGFF1oPwk5927I9+9YOi/b3XHQ9iZla2nN+kr8irr3ZVUaHdM57wk279ZnSEKjW7ob3IRi7pqio2UVvOdaS+vuphSOdFKO6Fx3Y/O47QAAIABJREFUI+ZgWWNR6esFlRVWYimpWPqG0753xs4wpuRSQmEFPquc5nuwCUQsfVXhSkm3vf23fEelSkgXP4x54q6qtDzsG2YAAHZDCR+A463VrnBNa4ucUjf/Uf4ysFY74u23WULupqWH6bxSM7bsiPnObg+/qUqe8q9iZtYZjMczyi9c9B3bqlQsqPrNw8Y/Ktt6GHjfmfEKKWHbSgTeU2VSManNZMBkE4mc5m9NKr+QUGpKKq96+9o0ppgmz0ja3FA/9sw7925IGo0qZdtKBd9895wT0cS4VHmge6xTA4BDiwQKwPG2PC9r33U87pboeyoqfb29NKKW3LS7lqj4eEspjWsyLmmPgbhzfn+y4qztaStMVzBh7IPwWH3d0fhEqzRtADHt51Bsxw4AOAhK+ACg79x1MFNVlW51sBHD8obK8pSF7dKGM/ty98C78hUfb0m1hK1f4hnlZ8KqrmdlrZYVmr7hWy9mFlNRj55KOjOpfvxE7cNvWpRHthI8Jj6p8d6FBQDoMhIoAOineEb5+qYGnW45ntOd9apC0ynl07ulBs3JgzP7FNrl+D2463iiC7VNHXqtsWnE7UxRWp5314t52jeMKVcoqToaVcq3xiqpRc+/g4nP7v3k9ulUpGWbxcxdZ91WYJMO3zFfPFBVYV2t3bfgDn8AgKFHCR8A9M3uv9/UrmJmVsV4RvmFlGzbs+KmUqqvr8ndLChiJxprciolZVfHlJppuzWlr0uZlVTTmqPOtjJ3N5FY8LxUL32rrTerqnSrUQpXu5aEvShZ88qZxrSW1uyac87G1uNO6V/96jK3dcV7ns2CrNWI7Bb9lLuZ1WSgzUZ7Oc1b0qK3zyX51nytpTUbXpQ9U7tvZRUs55wXm5sDAAyh1z765PXvH3z2Qc8aiESm9OTJE+3s7PSsjXa9dzY8dDFdeO/CUMX0xqlT+tHVH+nXv/m1KpVK39u//PGn+un5f9TP/yqrzz2v/3EAsQAAAAA1lPABAAAAgCESKAAAAAAwxBooDKXPf/YTX+keAAAAMAyYgQIAAAAAQyRQAAAAAGCIBAoAAAAADJFAAQAAAIAhEigAAAAAMEQChaF0+eNP9atfpHR50IEAPZJcsmUvJQcdBgAAaBMJFAAAAAAYIoECAAAAAEMkUAAAAABgiAQKAAAAAAyRQAEAAACAIRIoAAAAADBEAgUAAAAAhkigAAAAAMAQCRQAAAAAGCKBAgAAAABDJFAAAAAAYIgECgAAAAAMkUABAAAAgCESKAAAAAAwRAIFAAAAAIZIoAAAAADA0JuDDgBo5fOf/USfDzoI4P9n735CG1vTPM//8s9MLURfFw7iYmIyKhMfT7dxQQumR3jRE1MKLa6TQ1MgGS9cWYtJWqpFh830dLkEWYsUGoa+oIqqbpBjFiUVmYvK9EKEzCQ1B+IuFKq83QsjpsEbEwMhzwwB93oIwqRm0CKjcshZnCPpnCNZeiVLlmx/P3AhQz4+5znveeV8H73P+2qGynu2yvMOAgAAjI0ZKAAAAAAwRAIFAAAAAIZIoAAAAADAEAkUAAAAABgigcJC+oM/+xv94q+z+oN5BwIAAAD4kEABAAAAgCESKAC4MWkVHUeO46iSi887GNxB8VxFjlNU+tpncvsq/RQA+vE9UABwY8rat8tSIq/KQVbO4Zrsvbv2bVBx5Y+yii31XmmfFLSTr88vpBHiuYqym5Hgi+fVO/hsAADTQAIFADetltNObd5BzEAir8pBTJHzquzdXvKRPqwon6grt8j33GqosJtTXfLuIyXnUCRRAIA+lPABwL0WV/7IkXN43aKvuPIZL3kKJR3lvZ3FTp7Cajm9Opf04LEoYAMAhDEDBQD3Wl250lN3xuXocW8WZlyZbcWW2mqUDGZsMkU5Scv3QlNVe1/ub6ZVdFLScVVKpmRJah7bOo06Sq32lwOmD93Xu2c6trVfmuQGTITLE9tqPB+QHIbur7+Esb/MMRx3PFdRdv1Mhd132nbcdhh4rs6s3xTiDreleyQAIIwZKAC472o57dhVNZdiyjoV5RPjnyL+aEXShd6NmmlK5FWJnsq2be+/ghotS6mjfGC2x0pu6fK5req5tJKoaOt9QYWTtiKb294GCe7MWUrV3rmeN7SSdFTMjB9/QKboJmtvXvuSybSKTlYbbwq96x1fKHYQbK94riInaal5bHePe6Ft3zHueWIffHEfN2UlB2zYsBRT1klJx73jIpvPeufKFOUcxHThu1bhJJzymMTtteWDhgrd51JV85rNCAB3FQkUAEDuBhe2qucRxQ7GT0LWHgbnQNzd4BzvP99gvZbTTqDEr67Xb9rS0rLW/Cc4f9WdIYksXehVeBOKzLZiS01V/efySu+s6ATliEsxZTvxJlfUeG4HZnriuS1ZrYZe+OMovVSjFdHGEy/xSeT1bDOi9kkhMJtUz+937yWe25KlUNylfVXPpcj601DJYFuN576Zqeal2opo2ZKkuPIJSzqvDp1xM4q7O3s44ewjANwzlPABwKLpK3HTgF3h3FK34FH+UjhpUKnYlWVnnvKerbe5irJJR07UfCe6t+/bkq/8q57f8W3IsBE4dlCpWFj7/dveP1qXehv6uTvjFVHKcZQK/3LLXbs0VjLQ2UTCK4mLpdJSrXfvaw8j3SQrG/7dh2vu1axlRdRW48urr7z2MCKdnyrcquXTplJJN4ns/XZoRi+w+cialpekZm348zGJO/5oRWqd6fVtWqcGAHNEAgUAi6a0L3vkOh5vS/Sh6srtjjen0Eluxl1LVP/qQlmt6HFC0pCBuHv+YBLnbiM+VpiecMI4BbWcXjypKLu5pXyiHEw0/Tv13Sa3NW4AWFCU8AEA1F0HsxoqGzNVOlVTvrKwK67x+IEC5XmTqn91IXUStimr51+pqYg7C+V5+35AmWFYoMRuMHemLtr3RbfpqDVwpm2UlUfB9g6XUhrFLfUfk3islTFjAYD7ggQKAO67RF4VJ6uYGirYk245XtbLk7Yim9n+zRC66nr3QYHtwQd+ia0Jbx1P7KDYl4xcX1mn55JWt7prt9ykqn+zi4DOGqxkeGOJYu88X56pLUsp/7bx3qYVzdo4s0RujL1NNQaXRprE3YlpK9dbyzV6Zz8AuL8o4QOAe+3q728aVz2/460hyspxfCtuWo3u+pryXlVRJ9Vbk9NqqHC8rGxy7Ksptyvlj7J966CmsZV5udrQ1kHMnVGr1eWWTEpFf+ySwmvKumvIDhw5B94RJ4Xe2qVaTjs1d/2a46R857DHTlzLewU99t1/+6Qg+3RbTqAtDeKu5bRjFeUkO8+tqartnju4eg0AIEnf+P6Pv/nbs59+Z2YXiEZX9fXXX+vjx48zu8a4Pv2utXAxrX+6vlAxfeuTT/TZ1mf64pdfqNVq3fj1/+DP/kZ/+l/+7/rLPyno732v/2YOsQAAAAAdlPABAAAAgCESKAAAAAAwxBooLKS//4t/GSjdAwAAABYBM1AAAAAAYIgECgAAAAAMkUABAAAAgCESKAAAAAAwRAIFAAAAAIZIoLCQ/uDP/ka/+Ous/mDegQAAAAA+JFAAAAAAYIgECgAAAAAMkUABAAAAgCESKAAAAAAwRAIFAAAAAIZIoAAAAADAEAkUAAAAABgigQIAAAAAQyRQAAAAAGCIBAoAAAAADJFAAQAAAIAhEigAAAAAMEQCBQAAAACGSKAAAAAAwBAJFAAAAAAYIoECAAAAAEPfnncAwCB//xf/Un8/7yAAAACAEGagAAAAAMAQCRQAAAAAGCKBAgAAAABDJFAAAAAAYIgECgAAAAAMkUABAAAAgCESKAAAAAAwxPdAYYH8c/34r/f0X/8jSf/n3+kPf/SzeQc0A2kVnZSs7r+bqtr7Ks8xonmI5yrKbkak86rsvQnuPlOUk+y14sTnuYb0oaPUg4YKuznVrzjGvc+LAc+40w/aajzfUa42eRzXbssp6sbiaZ8UtJO/qnWGyBTlJFeu3TY3blHjTuRVOYip+2Raw/stAGA4EigskP+o//FP/qOkH+jfH/0L/eKv/wv95Z8U7uQX6jaPbe2XBvwgnBhI0nUG2Tc8oDNJKqaitC+7JElx5Y+yis3yWnNyY205RfX8jhermyCuzDkeeGo57Xjv/3iuouz6fMMBgNuOBAoL6Gf617t3cfbJVDBhiucqyh44KlpXJF23UG+gfV+VtW9PZ7aItgQA4GaxBgoYIX3oyDnKKz6n69fzL9RoSVY0PacIAAAA0MEMFDBCea+qqJNS1ilqbS7rlep69yGr2IPHikvebINXurbUO8pfFpg+dJRa7f0sduDIOfD+EV7/MGp9RKYoJylV7VNFfeu3eutbwuu6Yso6jrJ9x5mvkQkfN9s1G/1tOTCuQeWVrdCpwm3ZZ9QauOm3ZV/cYz/fDsN2mpoLvasF2yN4PTeejTcF7Xy17bvH/pLXUf0pfegopars0+jQ80jqa8/+NuiPe1DJbvg9OuiYvrhHxbQA6+AA4D5gBgoYqax9u6BGy1LKcVTM3PT143r8QNKHd771JVnFPlRl27b733FTVtJRJefOk5X3eq+7gy67d2x48HywoTPfz6sfYsr2zbhZSjlbuvSOK5y0Fdl8pnxCctvH+91zuYNTu3c+/+Cynt/xXq+qedXtZop6phe9eO2qmksxZQ9nMwOXPnwmlexAW0Y2s4HnHM9VvLVkvnY674/bOYjp4rh3TOGkHTqo11b9Pwv+fBpt2R93QQ3FlHWKCrbmsOdr3k7TFYzJvV4wJkmKbGa9BLDTbhHFMr7+a9qfVlNyEpdeexfUaIXOo057Wmr6nvELbYdi6m9LK1nxHRNX/shL2DoxPW9oJRn625IpKrup4HvXXrDNKQDgniKBAozUldvtDIZ6icpNSB9mFVtqq1F1P1mO57Zkqamq/5Pm0r6q51Jk/ekYpYZx5ROW2icvAoOycrWh9tKGngYGhcFPvutfnqmtiJbD+11MQ2k/9Il+WafnkrwZuGkr74UGpaVTNSWtPOpcLa3tzUhfOwW5banz6gKtUxsUd125UkNtWYoGEp/Rz3d0O01baLal9FKNVkQbT0LXazVU8M3ivX3flpaWtdaN07A/BWal6nr9JnSeRF7PNiNqnxQCz7ie3w/1ixFtmdlWbCn0/q3l9Oo8WKYbf7QidzZreCt17tG2bWafAOCGUMKHWyhc5iT1l0L1lxsZlfZoeFlSPb+jeqYoJ5mVc/R0RmVlkf6SO7t3nbWHEen8tK+UsHzaVCrpDvjMYlrT8pL3Cb6T7fvpsiVpLp92D3p26i+Xm5Yryu6680OJx1pRW2dfDmtVty2btQUawF4Vd+21zjIxbTzqFYSanW9EO82cV8r6MNTDuzOz3lF9m2pMqT9Zy4qorcbQfjCamxhFlHIcpcI/bPXKdOv5V9p2Ut5x19/uHgAwPSRQuIVMdjCrK7c7eqAz7g5mnYRrtms/bnawNNt7GVdnsBtMiN0tvWdwuU5SEFg7whbcfRainTqlrOP9zo32J2Mm3//W+Tvn3YP3ocqVX4EAALgxlPABhtKHjrKbETWP7bkmHG/ft6XVqMIrgtJRS2pd6q35mXTZkiIP10YfemPcmZz2ycub2ayjM6tQHXW1cLmiN5gPCZezrT28ejuJmau904UGlLwlnmpjSbr4aow+bNxOs+T1jffmPXyq/al5OZWy1fpXF5JW9Dgx8tDObyi321mXxW6cALAISKCAkdIqOo5Sq01V7fl/+uuuqbCU8i+CzxSVWpWatVBJoTfo6xtEu2dSrtaUVlNTW9Plrj8Jr58a6wx9SV14t7Kp6hsUDygPrb3WWUuyEp0NBQaVhLnraiKb293E9rpxX78tOzE9C25gkIkp0mro5Tj92KSdZix9mJKlpl6N9eHFFPtTZ51SYEMIKZ4r9m1sMZS3lit2EN7IY5QhCWSmKMdx5MxooxUAQBAlfMAI6cOUrJluoz2mWk473jbJjtNZReHutNdX9lfLacfy1mx11jn576W0L1uhn4ePGUM9v6O1Q0cp3xouf4lg3+C1u/6qU9JUV670VJUD372dV1U42VJ2vfdrfWvXljrHj1n+WMvpxZOKsklHTtJ9qXlcUCOR1UbvrpTbXVPRSXW3FG8e2yo8qgRiKu8V9Pgo213b0j4pyD7d7p5X0oB1RFbg+PAue9drS3c3xrfeFzF319RNstW1UTuZxWSkeam2rKFrAc2Y9SdTg9qzfVLQzljltnXldqW8r690DPsqgu61FqbcFgDur298/8ff/O3ZT78zswtEo6v6+uuv9fHjx5ldY1yfftdauJjWP11fqJi+9ckn+mzrM33xyy/Uas1q9f74frNAsUzGTXzEOgYAcxDPVZRdP1ucD4QA4BaihA8AAAAADFHCB8yB1S2FGrO0CQDGFS4dve0T+QAwZyRQwI0y2YIdAKaolhtznRYAYBhK+AAAAADAEAkUAAAAABgigQIAAAAAQ6yBwq1yl7fF//Wvfj2liAAAADArzEABAAAAgCESKODG/Xf6y58f6y//eN5xAAAAYFwkUAAAAABgiAQKAAAAAAyRQAEAAACAIRIoAAAAADBEAgUAAAAAhkigAAAAAMAQCRQAAAAAGCKBAgAAAABDJFAAAAAAYIgECgAAAAAMkUABAAAAgCESKAAAAAAwRAIFAAAAAIZIoAAAAADAEAkUAAAAABgigQIAAAAAQ9+edwDA/fNT/ekf/XTeQQAAAGACzEABAAAAgCESKAAAAAAwRAIFAAAAAIZmvgbq2//o2/rP2v+59A/fGHrcx9avZx0KsNB+53d/Z2rn+vWveD8BAADMAjNQAAAAAGCIBAoAAAAADJFAAQAAAIAhvgcKuCl//Jc6tlcltfW//c9/rP/pP8w7oFssU5STtHr/Pq/K3ivf2HXbJwXt5OuzuUYir8pBTBfHtvZLs7nETcaQPnSUetBQYTen6bZYXPmjrGJLnX+31Xi+o1xtqhe5IWkVnZRWZtmvhrrptnTvt/cObqpq7+sG3sHjWYT3IoCFxAwUcFP+9k+V/KOk/t1/kv7ZvzrWX/7xvAOanniuIsdxgv8d5RWf1QVL+7JtW7ZdUKM1q4tgsdWV27XdfnDcHH5opijHqSifuJnIbp8x2nIqytq33esVTtrXPx3PF8ANYwYKuGG/fP7H+uW8g5iFVnCWIX3oKOtU9PTWzgoAAAD0YwYKuM8SeVUcR8XM9E9d3iuo0YoolpnhTNRNa16qLeniq3mUWQEAgEXADBRwn9VyevGkomzSUeXRtNdf1PX6zTPFNjf0NCHVO7NQBuuX4rmKspuR3gutSdfQjFrb4f58401BO19t++K6Yg1ILaedYbNp4XuT1Jxo/URbl81g7IPWXY1qp/Sho5Sqsk+jI+4t3E7XMKANFC6z9NaWdCMf+HzD62TGb8v0oaPUau/fsQNHzsGwa4484/CYMkU5SalqnyrqO27QswvHJkmTFrMFzzXo+V6/LXvCfSW4fmnQmje3n15MsM6pv1/623Ks52vU56b4PgBwpzEDBdxz9fyO7OOmIpvZqa9bqn91ISmiZW/kFs9VvAGm3VvD9CAl5zDd+6VMUc/0wvu5LduuqrkUU9Z/jJG0io6bHHXPdXyh2EH/WonIZjYQV/V8gpmzRF6VpKXmse2LfdJBakSxg6yWa711KZHNbHCm0LSdVlNyEpcqdNeMhe/NbafYh2rvXM8bEw3m3ee7osbz3v1Xz0MHZYpyDjZ05j/mQ0zZQN+LK38U1amvHQsnbVnJ8da5lPf863ragbjssZMn05gspZwtXT7vHRPZfOY7Jq78kZdk+J/dWLGEzrXa9L2nXkip6bely+sr8sd+qujY703Dqx0+k0q+ZxZ6Hxg/X6M+N733AYC7jwQKgLcpgzcAd4qa0XBI25sRNY/9n0LXlas1pdVo75ql/dCn9WWdnkt68HishCae25LVauiF/1yll2q0Itp4EjpTq6GC79Pxt+/b0tKy1sa4nqxlRdTW5ZTW4AdmCEqnakpaeeSL27SdAp+01/X6TfDe4rktWWqqeu1dDN3n2z55MWTNW1z5hNV3TLnaUHvJnamUF2duNzhbUf/yTG1fMn7zTGMKzgD1HZPZVmyprUbp+rsSxnPP3HM9D72n9vznnl5bpg9Tbl8JJJ9l7c9oB8zyXmgmbdD7YCSzPje99wGA+4ASPmDB/LcHf6v/4b+KBF5r/6d/pz9+7tt6orslus//9b8o+aOf+l7oL9sZvl1wWfv2W+WPsko5jqJT27rXSyoSj7UiKZJ05CT7j3mckFSTriyjGXO3vbWHEWkppqzjKBv+4cM1yT98/fAuMJit53fGH9yWXqqRyHbLiCYvkTI1xXY6P73+FtKJx1pRW2dfDmu5NS0veTN+Tt9TcQf0V5V6LoIpxBR/tCK1zvR6ChurrD2MSK3G6HNNpS3jevxA0+krpsJld57xZoXM+tzU3gcA7gUSKGDBGO3S97d/quTfjjqorH17nOFAJ+Ga3neyxB+tSLrQu5ok75Pe4YlFJykYtK5iggAmXjs1ibpyu761GV6iOJvvjJpyO92wkW0y6Pu2vMH03CxiTCZua9yd5CmwRtL7vqwJTjfT724DcO9QwgfA240vJStUynY9bklX91Pd2jtdaFT5jftpcfvk5bVjmKgMb0o6azOq51Jk/ekMdiGcXjtJ6i/7s5b7PvU3Ey4L82Ytut7qsiVFHg5/Km7i3dSrBRrwTjWmcL/0ZmfHZdLHpxd3Xe8+aOxS2ol5JbGN6rX/Ehj1OUlTfB8AuOtIoIB7Lp6ryDmISSeFCRbWX8U3m9X99Lislyft/s0QAvoHO4N2KzNRz79SU5ZSs/xC36G85CFUHjgd02un8mlTWoppu/NMJi33qr3WWUuyEp32HlRi2FnzllIld/VTcTcfWXHLOqUrS7mMNS/V1oC1b2OYVkzu+iNLW537v8a9De7jceUPe/+eZlu664bCG5WkVfT9O5zU9e0Uacp7Zr2EfFBJcvDYwc/XrM9N7X0A4F6ghA+4zxJ5PduMTGe9Tmi9UfukIDv0qXc9vyPl3G3TA+ugumU6deVKT1U5SMlxUt2fFU62lF3vHd43KFvqHO9fwF/Wvi0VnVRoHdQVW5Rf08CB4oAt2qfDrJ2MlPZVeOR7Jq2GCvaptjvnHSem3bVAezePbffc/phK+7JVlJMMrUnxl1uW9lWNOkp1t6Vuq/G8quUDf0z9A+ruNtbhdq/ltGOFrjlueadRTAb6Ymmqahf0+CirjfHOJP+6xV4fd/t3976m2Za1nHZq7rHdfueV/HbU8y/01FtHmZL3+8fR4Pu9L4mzusd3S+18X7HQ+d3mcUGNxIB2GvV8DfvcdN4HAO6Db3z/x9/87dlPvzOzC/yz/+Yf6+Li/9Y//MM/DD3uY+vXM4sh7NPvWvr666/18ePHG7vmKOufri9UTN/65BN9tvWZvvjlF2q1xlyVPkO//70HC9VO0mL2p1//6ubeTwAAAPcJJXwAAAAAYIgECgAAAAAMkUABAAAAgCESKAAAAAAwRAIFAAAAAIZmvo35b/7f3+gf/p+PC7VDGXDXRf9x9EZ3BvzVr391I9cBAACYN2agAAAAAMAQCRQAYz/4q5/r53/1g3mHAQAAMDckUAAAAABgiAQKAAAAAAyRQAEAAACAIRIoAAAAADBEAgUAAAAAhkigAAAAAMAQCRQAAAAAGCKBAgAAAABDJFAAAAAAYIgECgAAAAAMkUABAAAAgCESKAAAAAAwRAIFAAAAAIZIoAAAAADAEAkUAAAAABgigQIAAAAAQ9+edwAAbo+f/Zs/0s/mHQQAAMAcMQMFAAAAAIZIoAAAAADAEAkUAAAAABhiDRSAa/vd3/ndkcf86te/uoFIAAAAZosZKAAAAAAwRAIFAAAAAIZIoAAAAADAEAkUgBF+oH97/HP9/PjnKv/5P593MFhg8VxFjuN0/6vk4vMO6ZZIqzil9nKfQVHpKUQ1+NyL9Hzjyh85cg5ncbempvfsANwebCIBYISf6c+TP5Pif6byf/9MP/+r7+mP/s0d+zrdRF6Vg5gi3Reaqtr7Ks8xpNuont9RXZI7qExpZc7xYLp4vgDgIoECYKb+F0rX5x3E9MVzFWU3I2oe29ovdV5Nq3iUV3w3pzt4ywAA4Boo4QNw+yTyqjiOipnrn+fZZkTtk4IveZKksvZJngAAwADMQAG4fWo5vXhSUTbpqPKooJ38ZKlO/MmGImqqavD7nZmqrvOq7D2vyC9TlJOUqsdSKmnJLQE8VdRJyVJbjec7ytV8x3V/5mqfhO8hrvxRVrGl3ivhY+K5irLrZyrsvtP2sHOFyxNbDRXGTQ4TeVUONnT2/IWU8cXlb4NxZIpykpbvBX/JpFseZg04d/rQUepBMP70oaPUqu9MgZnEMdrJiBebP3L/9Yyfb3/cktQeMxpJA8pPBwn3J1+fvPKYSdtoQEx9fc5tRx3bevnI/76arHS2/f5t8P05qI8P7XOa+rPr+3sxsM0B3FbMQAG4ler5HdnHTUU2s3KO8ppkCffaw4jUutTbEcelDx1lNy9UtW3Zti3brqq5mgpd11IqcamCXVVTK9o62tLl84IarYhiKf8id0spb/Bo23b3HvyzaenDZ1Kpc63Bx0iSlmLK9p3rmfIJ7+eZopyDDZ09752r+iGm7ETtFVHsIKuNNwX3XM8baq+mxl88n8irEj3t3ZtdUKNlKdWNqayXJ21pNRraCCGt6KrUrHUGxu4GAilVe+d63tBKcsDM5Kh2MhJX/iiqU7vXloWTtqxkJXQeSylnS5fPe8cEr+XF/aChgr8/jRNKR6Yo5yCmi+NgTEFpFR3fc7Nt2ccXih0E4zbuc0YxmfU5K+m4ya2/H0ywIURkM6vsw1e9tlyKKes/z8g+141oOs8uU1R2U2r42sC2SZ6Au4QECsDtVdrvDZhmtPOYEnltrUoOujDaAAAgAElEQVTNY/8n42XtHzelpQ099Q1Ce4P7iCIfXl05YArMWpReqtGSrGgv+vJeaLBVOlVT0sqj8BC0rcZz37mal2oromVLkuLKJyy1T14EzlWuNtQOxW0q8Gl8LadX51Jk/el4yVgtp53AzFJdr9+0paVlrXVe+fJMbVna8iVn8dyWLDV12p3t2VZsqamq/1xeTP629CIf0k6m6srtBmdH3DjD5wnONPQdk9lWbKmtRum6JaLu89V5NVR+GjoqtyWr1dAL/yxK6aUarYg2nvTa17zPjY7JuM+dV2V3Z4rqevdB0oPH4yf3gdnKsk7PQ+cx6HOu6Ty7+KMVSRd6R8IE3FmU8AGYjh/+W/38D78XfO3/+F9DO/b1l0D1l+2YHONX1r79VvmjrFKOo2iohOvarGVF/AP3jtKpmknLN3hu69L3UXT7/VXzWsHj3IFjVjFvwFeXrizL6i/xCg3SajntdP+9puUl99N5x8n2/eayJWnMAd7FV8Fh49v3bWnVHYSOkwwMKoEKqOX0KuUotf5UcdVVV1xP1yNqn7zs9gF3kBpRynGUCv9+y9eWbuRD2mkMfWVg44s/WpFaZ3p97cG1+3ybteEFb2sPI94MnKO+XvDQ9+SM+9zomEz7XPg9Ut6zZ7bz5cg+Z8D02dXzr7TtpLy+SekecBeRQAGYjp/8uf7oJ6MOKmvfHjVEMjnGr5Nwjb9+YtIEYCY+vAsmT4FP1SffNnridSymDEog/dyBbHBQ6a4XCR5XPm0qlXRnLep6qo2lpl713ccNbjfvJU+B9vSe1cIbte7ttvW5MZn2uenp/A3z1pUdOHIO+tfnAbi9KOEDcHsl8qo4KVmthgoTDKQHlYr1aV6qLUvR8FqQTFRW32zSJOJ6/MD3aby1rIjaalSvmxa81WVLijxcG33ohNYeRnqJnxH3XnV+dXljl6/MLP5kQ/LNPklS/asLSSt6PEEp4iTcGa9BSdwEwqVjiccTf6dSuMRu7WFwDunt+0GlaiG3qM+Nb4w+Z2KsZ1dXbrez5mpQaSmA24oECsCtFM9V5BzEpJOCbx3FmDrrePoWy3vfAyVJtdc6a0lW0r/GKq1i0prKoCx9mFXMP7vStz5nUEmjibpytaY0yUYPBuK5ivup/liD7v51Lv27lfWOff2m7W4QsCmdfRl6wl6CFTuY0dq3cDThhM1o97sB5wkn7ROep7PWJ7K53b3/QWVq9fwrNTVowwSfW9LnJjNOnxtxpomfnVvaeHVZL4DbhhI+ALeP9/1N0yiJKe/ZKmeKcpKOnGTnVbc0rLO4PbdbdwenvvU27ZOC7IlmIyLdkh5JbnmV7UsAfVu0d+JpHhfUSGS1Me6lSvuyVZSTDK1JmWQrc7m7poXbyJ8+9Q3gu2theseW96qKOqnempxWQ4XjZWWT6tNZS2INTFTryu2qu/bNvw5qJqVSpX1Vo45S3WfXVuN5VcsHfSuwhqvltGP5n0lTVbugx0fjP9/ynvt7nftvnxRkn277npHklpNJRX+bqxO/V9Jm2OdMnu+0+9w0jNPnhjJ8dgO3OV+wskYA1/ON7//4m789++l3ZnaBaHRVX3/9tT5+/Diza4zr0+9aCxfT+qfrCxXTtz75RJ9tfaYvfvmFWq3WvMPp+v3vPViodpLoT6Z+9etfzTuE+csU5SRXbt+icu+T9osbX8PR+74g1o4AABYFM1AAgAUUV/7I+0JdkicAwAIhgQIALA7/upLArnAAACwGEigAuCml/ds5mzLp9yYt+rUAAJgAu/ABAAAAgCESKAAAAAAwRAIFAAAAAIZYAwXgRlj/9J8u3Nbqv1mgLfoBAMDtwAwUAAAAABgigQJw5/3w8yP94vMfzDsMAABwB5BAAQAAAIAhEigAAAAAMEQCBQAAAACGSKAAAAAAwBAJFAAAAAAYIoECAAAAAEMkUAAAAABgiAQKAAAAAAyRQAEAAACAIRIoAAAAADBEAgUAAAAAhkigAAAAAMAQCRQAAAAAGCKBAgAAAABDJFAAAAAAYIgECgAAAAAMfXveAQDArP3kR7v6ybyDAAAAdwIzUAAAAABgiAQKAAAAAAyRQAEAAACAIRIoAAAAADBEAgUAAAAAhkigANx5P/z8SL/4/AfzDgMAANwBJFAAAAAAYIgECgBuTFpFx5HjOKrk4vMOBhPpPMOK8ol5xzKO2xr3mDJFOU5R6bF/sffedP+b5Bx3T/rQkXOU1/T/WsWVP/K39x3vlwvA+FlmijN65ncLCRQA3Jiy9m1b9vOGtJmVc3iHhmiJvCqBAeh1B0XeAOsutRFmK5FXJWmpebyv8ti/7L03bVuFk/YMgkNQXbldt73t4+a8g4Ff6aUaiilLEjXUt+cdAADcO7WcdmrzDmIW2mo831Guc2+ZopwDR5UnBe3k63ONbHrK2rfHH57P322N21RaxYOYdFLQfmnesQC3WV253TUVnZSe5eKq35m/3dPFDBQA3GsznOkp7atw0lZk8xnlOZip9GFKVquhFwz2gCkoa/+4yd/uIZiBAoB7ra5c6akqByk5R49V2M1pmkPQ+pdnerYZ08aTuFTzzpzIq3IQU6RzUKvRu274Z0spOU6qe77msR2YYUgfOkqt6sqfx3MVZdfPVNh9p20nJct7vX3izYplinKSUvVYSiUtSU1V7VNFnZSswIxaWkXf77vHhUrFOufq/n7oWj6j4h6ld18Dnlc3jn2VTeJO5FU52NDZ8xdSJqvYkvf6eVX2XufIuPJHWW28KeiFnim7GRlxviuer3v3Kjop6djWy0eV4ecyklZ0VWoeD+676UNHKVVln0blJLtPJThbasxth24bKfh847mKspvqP7fXJhf+53zj7WQgU/S1USeu0DEj45b63y/j9/ErYwr0S/n6+0s9Prqq/5rqf75j/00Z675G/L0Y1G+8tl0JXc/texHfBQb08Q/vVA+055C+VHqpRiKrWCot1e7y7PVkmIECgPuultOOXVVzKabstBdz197pQlLk4Zr770xRzsGGzp576x9sW9UPvnr7Wk47ti3bLqjRkjsIsnvH9gYR7sxZSr6fP29oJemomAnFsBRT1huIdtZcBD9ZtZRKXKpgV9XUiraOtnT5vKBGK+IOHiSZr5GxlHK2dPm8d2zwWmPEPcrSstYGvBx/tCK1LvV2rLgjih1ktVzzrUtZTfXFFNnMKvvwlRd7VU1ZSvlnL0c9Xx8r6bgD0e7zDp3LVCYqS21dDltKs5ryBqteTOcRxQ7G3ygiffhMKvXuze1L2W471fOv1FTE/cDAJ/5kQ5FWQy87/Xce7TRCPFeRk1xRwx/Teeggo7jjyh9Fdep73xZO2rKS4/9tcWPqPTfbLqjxIDVgxtxSynET/M57qj2g/w6XVtHJKvahGni+VnLApj8j/6aYspTqO092/L8FmaKXuPv6pj3gA4LVlJzEZbAvXbnWqa7Xb9rSg8eshRqABAoAoM5A2x1YTjCYNxJXPmGpffIi8H/s5WpD7aUNPR1n8JHZVmypqar/E+ZaTq/OJSsaHly11XjuS76al2oromXfh9rNWucT9IgiH15NMDPhv1Zv4FL/8ix4rbHivlr9qwvfv9wd5DrPbO1hxP2keczIA5+0l07VlLTyKDR0CnyqX9bpuXwDrDGf73lVdnfmoq53HzTRYM1NGM/0eugzC37SXq421Jal6Jj9vLwXGpT2tZPbJpHNbV9yltb2ZkTtN6+9e51POw3nxRiKKcg07rpyu8FZjb73wRgxBTcFqStXa0qr0b7kt3ls92ZkvA9u+vrvEPHcliyF3pulfVXPpcj601B7j/6bYir4vnupRmu8vwWS9x7Qhd6N+rsVmC30EqQrPoiRvL8z4/5tvico4QOARTOojKavHKW/RKa/HKO/HGVU6VJ5z9bbXEXZpCMnOkkJzGDt928lrWl5yZ3FcJxs3zHLliTDxMUdMESUchylwj9suYPLXgIRGlj4N/HISArNXrixzsZ4cQ/RvFRbG3qckGRF3X4QTUve05/lPVxtvOcbjrG8Z09Ulrb2MDL6oO6MnKf2ThcHMW+APUaqGS5f8/jn9srVhrYOYm5yVpI3Q9ZUtVtuNZ92GirxWCtq6+zLYW0xRtyD/oZNFJMUSTpykuEftt2+X+v9OzgDOf6mKWsPI9L5aV/blk+bSiXdJMPob8pYwnHX9e5DVrEHY/wtkDvzue2kvL8rk5anYhwkUACwaEr7skeuFTAZINSV2x1vHqKzNmfi9Qph3iDo4qu65H3OOfZagSvNcC3ITE0hbi8BWLbcpKx5XJWSUaUV1+MHkt5PKdQJTO/5mnn7vi09mOx33X5pqJM8BT7M8Naj+I+rvdZZJqaYl9Cmo5baJ4W+533T7TQtI+P2kqdBa3kmMbW/RbfJ2DPInf8/8D40O3DkHEyr7Qxmtu4hSvgAAOquzVkNlaZcUzoVU0RNnZYk6a0uW771UNfglrCtuJ9C3yLTi9ttSymup+sXOi2VdXpuKZpxZwnGSgymZnrPdxwTlRl5My5D102FWcuKqK1G1eCDi26ZWVrR1aZeBRKO+bTTaOESNC8Z7zKL251lDd/zBCYow7uOt+/bA0sD01GrfwZzZtw2n3wGufP9WoWJSgH7ogmsp4QfCRQA3HeJvCpOVjE1VBi08HhCvdmszmxLZ2CZ6l+U3cdb6zFgQCPJWysw2UYAczW1uN32WUk8U+yDW3ZUPm3KSmyNnxhMzTjPd4pKpwM3bria+51RkfMx17r1rXMZVEbrj8ndIMDqKwubRTu56+Am/vLq2mudtSQrke+tZ+sr/zWLu+9DgivKHkcr6+VJe7JNFSbgrtPq3xQltepfIzlb6cOsYku+5LMviRzS5wLcD1KuV8ob19P1ydZT3geU8AHAvRZXPhMuS5pUpFs6IsldsGyHBh6lfdkqykmG1lEM2Aq5vFfQ46NsYL1QrySlrtyulA/9PHjMFPUNAq3udccrxZpe3G/ft5VajajZ2WK4dKpm0pKlZq/kZmpxGxrj+U5PWafnKVmb20qrPrg0cimmrOOoE1H7pCDbf+8m7VTL6cUTb32gtyaneVxQI5HVxoCYXp5suTujDZqxmno7ubND1lJkwm2ne1+e2mmn5rGtwqOKsutjxl3aVzXqKNX9W9BW43lVywf+3t6fCHT/dvj+FtXzO1Iu2OaSJtyifIRaTjs1N67eVye4M/KzW0806m9mWfvHUV97t9V4XtBlJtjnwl+LIE3h/Z3ZVmyprUbp9hVJ34RvfP/H3/zt2U+/M7MLRKOr+vrrr/Xx48eZXWNcn37XWriY1j9dX6iYvvXJJ/ps6zN98csv1GqFvwRifn7/ew8Wqp0k+pOpB//k9+YW0w8/P1JSf6c//NHPAq//ZoH6NoDrGPzdOJI3uHwwywRusKHf1TULg9YeYXFlit628Yu44cPV7ye4KOEDAAC3XFn73nfo3Gj54FU638tTuqmkzd1ifCprj3DPxZU/SslqNfSCvnQlSvgAAMDt1y0vG1LKN2O9Uqqb20o6nqsouxkZXDILjCuz7a6HveEZ29uGEr4FsWglV5TwmaM/mZlnCd9VKOEDAADjooQPAAAAAAyRQAEAAACAIRIoAAAAADBEAgUAAAAAhkigAAAAAMAQCRSAO++Hnx/pF5//YN5hLLz0oSPnMD3vMAAAWGgkUAAAAABgiAQKAAAAAAyRQAEAAACAIRIoAAAAADBEAgUAAAAAhkigAAAAAMAQCRQAAAAAGCKBAgAAAABDJFAAAAAAYIgECgAAAAAMkUABAAAAgCESKAAAAAAwRAIFAAAAAIZIoAAAAADAEAkUAAAAABgigQIAAAAAQ9+edwAAMGs/+dGufjLvIG6B8p6t8ryDAABgwTEDBQAAAACGSKAAAAAAwBAJFAAAAAAYIoECAAAAAEMkUADuvB9+fqRffP6DeYcBAADuABIoAAAAADBEAgUA91paRceR4ziq5OLzDuZ2SeRVcRwVM/MO5Lriyh+5fcD9r6J8Yt4xYaBEXpWxn4/3fA/TZkfnKm4/MDweuI9IoADgXitr37ZlP29Im9m7NWi6arC5AIlP+tCRc5TXYqSsdeV2bdm2Lfu4Oe9gMEQ6FVPk/JVytXlHAtxvfJEuAECq5bTDoAxYYGlFV6Xm8Wy/7rqe31F9plcAbj9moAAAC2a8kiPgPojntmS1GnpZmnckAJiBAgAsmLpypaeqHKTkHD1WYTc300/E04eOUqrKPo3KSVreq201nu+ESqXiyh9lFVsaejYVnZQs3yvNY1v7pUE/iynrOMp2rnhS0E7ed6eZoi8eSedV2Xtjzj5kinKSUtU+VdR37b5rGYrnKspuRnovtBq95+PF27vfDve+VwLXDLdluL3dn2+8KWjnq+0Rz8VAuC2lAXH2H9ffTv19IHyeeK6i7PqZCrvvtD2szRN5VQ5i6ramvy37xPV0PaL2m9eDfx4+14C+0n7/Nvj8QtcLP9tBfcT8vdL/Ppio/wILihkoAMDiqeW0Y1fVXIopexObGqymvETDXQtUPY8odlBUbw4sraKTVexD1V0r5K0bawdOElf+KKrTzs9tW4WTtqxkJ35vvZltq3oudwDrO9Y/WI3nKoF4bLugxoPUhLNyllJOSjrurXOKbGbHXwOWKeqZXvTuv/N8OjGVXqrRkqxoKMZMVJaaetW9P7ctN94Ueuc6vlDsoP85Rzaz/c8lM+basUReFS+xs33tHU6e3DYPHvdC276YBvSB46as5IANWJZiyva1+bPeuTJFOQcbOnveu1b1Q0zZq9bFZbYVW2rr7MsB6VOmKOcgJp342vM02vd8I5tZZR++Gvzs5JbudX82rD1Hvlfiyh+lZJ1XA+1N8oS7hAQKALCg3ITDHaDNetOHpqr2vjpDvHK1obYsRb1rxnNbstRUdeggsK7cbu8cklT/8kxtRbRsXflLA6S1vRlR89h/rrpytaa0GtUkKVRgluSqRGeU0n5oRqKs03NJDx57g/66Xr9pS6tbvqQjrnzCks5Pu/fSKUV74T9X6aUarYg2noTSh1ZDBd9zefu+LS0ta22cuK1lRdTW5bCsIJHXs82I2ieFQGJVz+93Z1YG9oHSvqrnUmT9aSjxaavx3NfmzUtfP3DbpH3yIjBrU6421F7a0NMBHxako5Y0cPOItIpJSzqvBp9Nab9/di0wAxR+duMY/l6R1rS85M54AXcVJXwAgNEGlED1l+QMKNsJDbYGl8ENL8sq79l6m6som3TkRGdUBtS6VGC4V3uni4OYVh7FJdW19jASSAKuNKidxpV4rBVJkaQjJxn+YVuPE5LGKmELJw91vfuQVcwbPJsX8l1RwtjynTn/SttOyk2EanUp8VQbS201Sr2WW3sY8WZoeuWLXQ/XghF9eBeIb6INDkov1UhkFTtw5BxcUbrnJVmNQTM8/rgH9IHyaVOppJvU9X77Qu/8zyiwSYubYEQ2s3KcvhZwkyz/7yby2rpq8wivrzRPb3B2Z8R7RSrr5cmWsp37o3QPdxAJFABgtNK+7JGL18vat0cNlOrK7Y43BE4fOkqtXjHwnbGLr8aI1UueAmtHvLUpk5j5/YaSk+E6yVMwIU4fOko98B9X1ul5Stb6U8VVl55sDN52e+h6n2nr9bn0oaOUl5hOug5sWkyvH3+yocgt2DzC/17pJrqZopxkSo6TuuFnDswWJXwAgAXl7saXWg2VQ41lQPmctayImjoddr7EY62EZ27C5U7WsnzbKSj+aEUKrPWZUO2dLiTvE/1ZiOvxg3FLrLyyrJOXI2fheqVocT1dlxrV4G9MVIY3JeW93hq0QNldoMRusLfv2wNLKNNRq39WZqi3umxJkYcmLTBi84iZ9xUDg94rHaX93veLXVGeCNxGJFAAgMWTyKviZBVTQwV7gl3XJKmW06tzyUr4F+Z31owMK8dLq3gQ/MLS8mlTWoppu7POY0CpXv2rC0krbold5x78O6P5uEnEVQPKsl6etCfb6MFA+tCdSRov0esf9HdmBvvUXuusFVHsIKuYzvQ69Ozq+VdqylJqbl8k7CaQgRm4Tl9JBjeyiOeK3X+769kspfwbeWSK7uxobZyZlc56tlT/5hNhme0Rz+qKvpIp3tAXRfe/VwZxP1wIlTUCtxglfACABRNXPhNTZAprJ8p7tnTo9G0XbocHpEv9W4rboUX5hUfeOqykvM0NTrXtpALHVKOOUt5aG3dtV1XLB75jPPX8jtYO/ccGS7rq+R0p57tex0RtEumu/5E6sfsH/P1r17rHd6/n21q+c8/nVRVOtpRd77s75Wru1uODE4uy9m2p6KRC66Am3KJ8hL6t173Yw+3YXWsXfiadeGo57dTctuq2gbdZxNgxl/ZlqygnGVoHFSpzczePqA6d9avnd1TPFOX4+8p5VfbeeCH1JcTdNVqhdYyj3isDPzgIr4UEbrdvfP/H3/zt2U+/M7MLRKOr+vrrr/Xx48eZXWNcn37XWriY1j9dX6iYvvXJJ/ps6zN98csv1Gq1Rv/CDfn97z1YqHaS6E+mHvyT35tbTD/8/EhJ/Z3+8Ec/C7z+mwXq25gfdx3PHV2fkSnKSa7MJDEZfV0xaL4OLxG5mMPav6vc6fcKMAZmoAAAwPT4vneJ5Glyt2XzCOA+IoECAADX5i+Vm8eOiXfNRFu2A7gRJFAA7ryf/GhXP5l3EFhY5b07PFNitP38dDDgv/vu9HsFGAO78AEAAACAIRIoAAAAADBEAgUAAAAAhkigAAAAAMAQCRQAAAAAGCKBAnDn/fDzI/3i8x/MOwwAAHAHkEABAAAAgCESKAAAAAAwRAIFAAAAAIZIoAAAAADAEAkUAAAAABgigQIAAAAAQyRQAAAAAGCIBAoAAAAADJFAAQAAAIAhEigAAAAAMEQCBQAAAACGSKAAAAAAwBAJFAAAAAAYIoECAAAAAEMkUAAAAABgiAQKAAAAAAx9e94BAMCs/eRHu/rJvIMAAAB3AjNQAAAAAGCIBAoAAAAADJFAAQAAAIAhEigAAAAAMEQCBQAAAACGSKAAAAAAwBAJFAAAAAAY4nugANxRP9C/P/oXWpXU/k+H2v2L/zjvgOYrU5STtHr/bjVU2M2pHjgoraKTUu+othrPd5Sr3VSQ44grf5RVbKnz70WO9W6I5yrKbka6/26fFLSTrw/5jfvI65cfqrL3yvMOxrMAMSXyqhzEdHFsa780nxCAaSKBAnBH/Uz/evdn0pOsjv7Vnn7x+ff0hz/62byDmq5wUnR+xQApkVclaak5dPASV/4oJeuqcyycunK73uA9U5STXJlvOLPg3deiJIb1/I6XcLuJ9h1scSPpQ0epB4M+gABwX5BAAbjbvixo98t5BzF97mzAhaq2LTfdcQe1zqH6EqD4kw1FWg29HPbJb+KpNpbaapRuQ/IEAMD8sAYKAG5MXPkjR85h+nqnSeT1bDOi5vG+eulOWfvPG2qvplTMBA9fexjRSNayDI4CAODeYwYKAG5MXbnSU1UOUnKOHk9cAhR/sqGImjoNzyjVXussE9PGo7g0g+Ki9KGj1Grv3+GSwHiuouz6mQq777TtW0s19lqZTFFOUqrap4pe5zz+uHxrdwLrv7wyyP7yRq9MLXDNUeuu3N/Rsa2Xj/zXbKpq+5Pd4cLtHDtw5BwMiN0X/8B7M5XIq3KwobPnL6SM7/4mLecMxxS4f2+d3YBzT1oaN/T5ds6rquzTqC+uQWvmhq0BDP8spqzjKNs5MtQ32+/fBuMa9Fy8dUHdyPuOmU5/Giem6bVl+L0C3C3MQAHATarltGNX1VyKKetUlE+Mf4q1hxGpdam3V/w88nDNHcQ6jhzHG4wvuQO+zmvuLFVaxc5rSUtSxB2sd17rzpS5M2cpVWXbtvvf84ZWkk7fbJd7HXfQZ9u27OOmIpvPJrhPS6m+82T7rzdKpqhnetGLu9P2nXsrvVSjJVnR0KxgJipLTb3qDorTKjpZbbwp9M51fKHYQf8ztJKOm0jatmy7oEbLUmqMWcfyXu+e3cGp3bumbzAbz1W8NVKdnxfUUExZp6jx5zgjih347s+bzazk4uOdJpFXJXrqa2/v/o/ycs9U1suTtrQaDcWYVnRVatbGTP5GPd+O1ZScxKXvmUQUy3Ri8uL2EubOuQonbvLq9rmy9r3Xq+dyEwu791zCiX1kM6vsw1dXx5QpyjnY0Jnv2VY/xJQ98sXkuW5/GiemqbSl916JfQj+vWiPHTGwuEigAODGuYOx6nnEN0CbhrreffD+Z2m/NzAbMOBzZ1t6g8KBg/XODEFmW7Glpqr+GYNaTq/OByQe3jm6sznNS7UV0bKlsQVmha5KdEYp7YcGt2Wdnkt68Ngb8NX1+k1bWt3yJUJx5ROWdH7a/ZQ/ntuS1Wrohf9cpZdqtCLaeBIa8p5XfYmO90y615uWtLY3I2qfvPB98l9XrtRQW5aiE/SpwCyK93wj60/Hi7uW005gZslr36VlrXVe+fJMbVna8iVn8dyWrEGzqqOMfL6ewExKf0zpVEyR0POt519M1uek0OxdOCa3fwWfnVSuNtRe2tDT8IcN0+pPQ2PS1Nqy8yyrt2IzGmAylPABuN/6yo00oHQpXL4j9ZfRDCpZGb61dnnP1ttcRdmkIyc6jd3v4nr8QNKHkQeOd9ZHK5IiSjmOUuEfttzBVW/YdaF3/vut5bQz0Q5ybV02/f+u692HrGIPwtcb5YpSopbvzPlX2nZSbiJUqw/cUGPtYaQ7i5cNnUoP1wIRtd8H5wbLe/bY5VYjJR5rRW2dfRlqiWuUcV58FTz+7fu2tOoOjMc5U7gEsU8tp1cpR6n1p4qrrrrieroeUfvk5QTtNPr5mpzj8QOp/eZ16D7rev3mmWLr4/a5Uda0vOTOCDlOX29yP2zwvWdupD9Jmk5beu8V34cPwF1EAgXgfivtyx75qXdZ+/ao4YBvW21DnYHm8O3F+109sHUHZk8Dk+4AABgOSURBVO03VxX3Xcdk6y6m7sO7CZKnYOzuWhv/cWWdnqdkeQN6PdlQ5PxVf+I7yfqi225Iqeggbp8OfnDgrqsJHlc+bSqVdGdb6nqqjSV/uaQp0+e7mBbre7Rud1sCN40SPgC4cd6aotVQuZuhTglUX5lWJipr0KzENdW/upC0oscTrNeaHm+W4P04w3kvoTSY2eiVT8X1dF1qVIO/8fZ9sExp7mrvdKEB5YOJp9pY6p9NmsTaw8jYCevjB5IGJZ9hvvLH+JMNaaLZJ/PnO5xbFtdfrujOjI3XBibe6rLlrVVcGNNqS0+47I9dPnHHkEABwE1K5FVxsoqpoYI94RekdtYfJf2bBaRVTPavq5gKb7AbO5hkc4LpSB+6n46PN0vRP1C9srys9lpnLXcjhZjO9DrUhvX8KzXl3wzhBnjrx/qSJEmd9SnBDTriymdio7/zy0A8V3ET/Oo4w+n+9Tl9u7r5jn39pu1ubLCpCZP+MZ7vCOXTprQU07PAuqxnii31t4GbTA9Yq2SsrlytKU2yScfMTL8ttzsf8AwqkwZuOUr4AODGeAPcSbeH9inv2dKhE1iXNLuSoLpyu1L+KNu3Dmrc8kNzkf7tu+3+LZ79w7Lu8d329W0b73hRn1dVONlSdj18vbpytW13S/OBO8GVtW9LRScVWgc1fJ3btdRy2rGKcpK+tTK+MsLuGjp/O12jb1lJR06y86/+ks2+AXV3DU/v2PJeVVF/G7UaKhwvK5tUn87aM8tkxmqgcZ7vCKV92c28Kgf+dUmDy1br+R2tHTpK+dp97PdeaV+2Qs9WmmOZ6HTbsvDIW9uZlPfePdW207eCEri1vvH9H3/zt2c//c7MLhCNrurrr7/Wx48fZ3aNcX36XWvhYlr/dH2hYvrWJ5/os63P9MUvv1CrNeYK0hn6/e89WKh2kuhPph78k99buJh+s0B9Gz6Zorc994wSk6HX1WKs9bpJ3vcRXcwsGb5K73uObva6AHA9zEABAJDIq+J9oe69Sp7mJq78kfeFuiRPAG4ZEigAwL3lX6Mzu3JEdHmzXRHpWuWGADBPJFAAgMVitLX8dNTzO/drW/JBJv6urgW/FgDMCLvwAQAAAIAhEigAAAAAMEQCBQAAAACGWAMF4F5aWvqWvvO9xfqahV/96v+bdwgAAGAEZqAAAAAAwBAJFAAsqHiuIucor/i8AwEAAF0kUAAAAABgiAQKAAAAAAyRQAEAAACAIRIoAAAAADBEAgUAAAAAhkigAAAAAMAQCRQAAAAAGCKBAgAAAABDJFAAAAAAYIgECgAAAAAMkUABAAAAgCESKAAAAAAwRAIFAAAAAIZIoAAAAADAEAkUAAAAABgigQIAAAAAQ9+edwAAgMHq+R3V5x0EAAAIYAYKAAAAAAyRQAEAAACAIRIoAAAAADBEAgUAAAAAhkigAAAAAMAQCRQALKh4riLnKK/4vAMBAABdJFAAAAAAYIjvgQIAjBBX/iir2JKk86rsvfK8A5qBtIpOSlb3301V7X1Nfqfh87XVeL6jXO1aQS6+TFFOsnfXt6a/ZIpykis39oziuYqymxfX7GMLakZt6bZZpPfCoL4V7n+thgq7OdXHen/3/t41j23tl6Z3D9Ph3svKSUE7+Sl/U2Air8pBTBcj73vafy9vHxIoAMAIdeV26+r8n6Zz9NgblNw9Vw6YvIFFpO8HgxKjuPJHKVm3JXmYptK+7JLUHYTOO557In3oKPWgcWffl8oUld2UGs/tq5OyRF6VpHXFe7isfdt9L7qJ2CyDvQ967ekmrfONZh5IoAAAhnz/p3nf1HLa8QZu6UNHKQ1JjhJPtbHUVqN0T9sKmLJ01JLOq0NntOJPNhRpNfTy2jNGnQ+MgKuxBgoAcCulD53F3GTDWh4wUwVgMnE9fjD6qLWHvOtwc5iBAgDcSuW9qqJOSlmnqLU7VH/fKTHqKw0ctD4hXFrYGlTGFV6voAVYm2SyRsy39s4TLM9yf77xpqAXeuZbHzPpeowLvasF42r3rTPpj6n/mEHHjYqpd93B5xv+O66Yso6j7BVxGa0hMhFeZ6RBpa/9bdkc0G+Da21muLbHSPiZXd0nTfpcX3t3TNDu6UNHqdXga+3wQYbrD4PnGr02s3v8wL8t9xcJFADglipr336r/FFWKcdRdK4LvvuTlNiBI+fA+8cYg6Z6/pW2nZQ2nsSlmm8AHC5R6i7W760LSR86yh7lpe5AZwHXY3mDZ50UZHsD5XiuouyBo6LVeYZee55XZe/611o4qjwKDrAjm1llWw0V7Jzq3gA3dZTX27EHe5ZSjtue+7XO9Z4pn6j72veZVLJldwacmaKcZFbFTL0vEbC6MXmvHaalgc/Ad/xYMfdKaketgXIHwf5B/oTrGYeuM/ILtmU8V1E2WVG+ab6xRF8CspSS46S8f3gDfyuczAWTyPE2gfCV7nnvratENrPKnldl22V12jJ1mFZ5L7jOqvfe9PXnsd6HnbWEob7kpOSPrrcpie09X/f3nEP5rtdJEP39IK78YV7x2rB+c082wBkTJXwAgFusrtyurcJJW1bSUSU3r4K+svZtW7Ztyz5uyh3gef+27TEHTWWdnkuRzW2lu6+ltb0ZUfvN615ilLDUPnkRGNiUqw21lzb0NNF5ZU3LS1L7/dvr3uDUpFMxRVoNvfAlQfX8CzVakhV17zie25Klpqr+divtq3ouRdafBss2A4lHXblaUwq0ganQQLH0Uo1WxE1kPeW90ECydKqmpJVHvWPShyk39kBiUtb+oD6QyKvSTRRn9Ol+Iq+tVal57J8hKWv/eIJ2spYVUVuXzVEHBtuy/uWZ2opo2Rr+W371/I73/imo0ZL7IUTn/WR75y7td1+rnsvtC3bvfTezD1QCiZD7ftWDx91+ufYwIrXO9LrbV/qPMZLZVmyprUZpWN9w/zYEn6/3PliNdv+GxHPP3HM9Dx23N+jcceWPOkk3ydMgzEABAKZkQKlYX2lLfwnUoDKSQeUvw0qb6vkd1b3ZAOfo6a0vNSlXG9o6iCmakVSSlIm6g/Lu/buJUWQzK8fJ9v3+siWpJkllvTzZUrZz3Nxnotz1LL1EsKOu12+eKbbuDjDXHkak89O+krfyaVOp5LLWpN7vf3gXPFfzUm1ZvjaYVF3vPmQVe+i72hW7MfbKqbz1OgNi72cpdWC5g/5ZPhNrWRE1dRpOJkqnaibHbKfSSzUS2e7s6mJu8z1/b9+3pVU3Oa17M1DRVal9Eu73w8UfrYQSsQESj7UiKZJ0BuyG19bjhKRaJ6lrDD+Xx0pmZSmcbMGPBAoAMCUmu/SZ7XBVz++MN9DwEi7z9SMLrvZaZ5mYYtG0pLLSUUvtk0LfYMbkfrttmSnKSXplUHd+PYPJLMkoXjL0wftnJ3kKJKH95VTmmqo+v9TWQUzZw7Tqi1JiOVTv/Zs+dJTyBu135n03JfWvLpSV1V/GO8M2mmYy2zwu6DKRVeygqHSNJGoQSvgAALda+tBRdjOi5rF9hwZx/hKctKKrTb0K3NtbXbakyMM181N2yp0mKd2amrrefRhQhqe4nq5HurNJ7if4UV8JoysdtaTWpYYWJFrLiuhC765ddhQqf/TK1xrVYcNJ9/6MS7VqOe0cN6XV1OzKT70ZuWgm9HomKusaiWZ5r1c61/8877NOeW3BV3I4bhmvz5I749rlzTh11d7pQsEy0kHevm/3n+tKdeV2q2rKUmoRdzpdACRQAIBbKq2i06nTv4OlRKVTdwDjpGT1lYR1EqzxB97/f3v3D9P2mcYB/On1NqRy16hVVDW5E450qDcwoUwnEYbm5A2fGLLDlLIhj2d5RdkgEwy3ZUAl209qB2LdTRFTlqhDnSXSJVLVqgxeIp16g//EGAMPDgRDPh8pA5jYLy8/JH95n+f5zX1xPWJowGjvZ1FsR/0cw9XWs2bE5Gzc71t3rz+jE07aPTOlqGz0Rajl9ahMRTSPaHiPiN6Qg9bTb9/5r+bdXqZecG3+MtDHM6xktduH1j5V6nu29hCJYTZXYu1pKyZuV0cOUe03x0eE4t0n8Xw/orSwfqCnbn2hFPHiu3fsb+me0r083WnmoTf9w/fyMjvVHzeO0P09uNu9LoaWkG7Ft53rZ30wJPc/V/27IYGoM0Ri6P/YipUHnWtZiDpECR8Al9LSxiiTy0Z06I1LdyLYeU6o6vYvxfBTj82VKEen76u/D6p/T4a+4TpqpHb7VKs0ORGzlaWI3dNHkKMnp/Xt0+ZKlJv12F7tX/fAmnZrsdgZg31w8lr58F5P9X/NiKVMnVOaAyVXB6botdf08G/bUe3rNWk+Xou9+Wp81f9cQ9fe/v6O0qgvxq2NIiq3q1Fs3Dr1aUXv//et/21ZXbvsbmmjiEpRRG83+6YgZg0dzT1SX91WrDye6bt2W7H3YC1+WR7Yy7Ny6Peg1NuLt/t0zCTNU32Pjaht3ont1YPXZdspR+zv1mKx1P873oyd8lrceHRwnxr1xYjawWszYnDdb6eWvp1U2P69PPIq6L3+7JW7XcS7+ujv//zdb8//9eW5vcDMzFS8evUq3rx5c26vcVqf/6k0dmua/nx6rNb08SefxNd3v47v//197O/vX/Ryev7652tjtU8Rrqesa3+5OVZrmpz8OL784x/Gak2//vq/Ax/P1bajOv38iveqjIv2m6cYs6b4934NdO4lczl6WjoDSX6+6MEY0O+o+1mNOsp8zC2vR7EQI9577fJSwgcA42h5vX36dOwI47PU7t2IGOy3AtIGe5QGPj9OtxRgdEr4AKCj1CuBOWWpzRlq37wy4nzLAw/qlWYNlq0Bp3Oo7O6tqzP2fbDc8Z1HXl46SvjGxLiVXCnhy3M95SjhO9lgCR8AMH6U8AEAACQJUAAAAEkCFAAAQJIABQAAkCRAAYypudp2FO4ADwBjRYACAABIEqAAAACSBCgAAIAkAQoAACBJgAIAAEgSoAAAAJIEKAAAgCQBCgAAIEmAAgAASBKgAAAAkgQoAACAJAEKAAAgSYACAABIEqAAAACSBCgAAIAkAQoAACDp9xe9AACGa9QXo3HRiwAADnACBQAAkCRAAQAAJAlQAAAASQIUAABAkgAFAACQJEABAAAkCVAAAABJ7gMFMFbmov6oGrOTEfFiJ8rfbF30gs7BUqwXlSj1Pm7GTnklRv9O+/as+4yPy7Gy+S5rvGq6e96KvQeLUdu96PW8X3O17ajenuh93Hq6Fot1d1kDRiNAAYyVRtTuNaL7hrd4dCPW7tWu5A11jww58/XYXp2NiUMPDH/zv7RRjdnYi7Xy1dyn92Vpo4jKtb0reb29vSl1O2x/dcHrAS43AQpgLG3FSvkqnj4l7NZisROSljaKqMRxJ3FLMTMV0Xx89d70n60P+HoCOGN6oAA40dJGEcWjesxd9EIGzd+I6xe9BgA+KE6gADjR1jc7MVNUolqsx6136lcaP71TrmczUSx0O7OGlQsO9m6dcz/R8nrfeuJgT1yvzPFg/1i31+dtj89J/WaDj89GtSii2vlolF6hwX6joes/9Lr9JZ2dMrsfduL5dCVmJ9vreBj328872Bt43D4BnAMnUAAkbMVKeS329ktRKYpYX77ItcxF/VERRVFE0emVKi10Pi5GPCmbqkQx/0uslctRLq/F3v5EzC73Pc98PbaLSlx/uhblcjnK5XKsPY2YXT2fvZirbUexELHTea1yeS32rlWi2Fhqf8FuLRYf7EUrSlHpfm6+HvcPhKeI9s+tu97WkFd6+/jOi4jY3+vsQfvfaOEpYu9B9zl2ohkxEGrmov5oJp71vc7a01aUFrajPv/2uSZuV+LT3fZjE9P34/5n30X5cTNi6m7v607cJ4BzIEABkNSI2r3um90itmsXVdDXXke5XI7yg71oRfv0ovtmvDzKEIT9/uEJjXjyQyti8tO41Xl4qTIbE/t78bAvUDTqD2NvP6I0c9Zv1pfiH7cnovm4/6SoEbXdZsTUTPRebbcWi4+bEVOVWF+ei/rybEy82LnQ6XK3PpuI2H8eT3qnclvx7EVEXLvRF2obUbt38BSz8Z/n0YqJ+LT/SGp/L77tDhmZjHi+M3iqlNwngDOmhA/gUjpcAnW4POvweO9hZWfDSq6OK91q1BejsbwexUI1ikd3ruTUtoPm4sa1iNYPTwa+z0Y8+eF+zE63w8GZ7UGnr2tioYhiYfDBVtyYj4juz29zJda+2I7qQjVK0YydexdbuvbjT62Iqa/iznxEYzeiO+Sj9XRg7wbL7ob5+WU0IjrB63W83I04cMGfZp8AzpAABXApZaaqdUein/BVvRHPOYf7bDgP2XtZ3fqsG36vX3hoaPz3dVSjFLOrRRSrnU++2Ily/3XSCU8Hrp9OT9co3PMLeN+U8AGQtrRRRPX2RDQfn74/5vJqxMufIyam7wz0Vs3FnemJ3knJmdl9Ga8j4voXJ5dIztW2ozLVir0H5dh5MdC39d7NRX2+HYzKff1NgwMd5r64HhHN+O5dr59T7BPAWRKgAEhYivWiiMpUM3bKH95f/LeeNSMmZ+N+X9/XXO1+zE62Ym+wN2e+HttFEUWxPmIfzlZ8+7QVE7erxw+o6A2NeBi13fakxObkbFRHHKDw40+tiMl2+d27mPjs1rGPN/77OnqnZRHH3Dj5JMl9AjhjSvgAONHSRiVKBwYtnKNDb6grURSVOPex4cfZXIlysx7bq9Uoiu6Q78Ges47dl/F6dTZKUYq7tbnYGuGkpVFfjKhtR3Wwv6c7za7bQ7S/F2v9E/cez0SxUIliI9pfd2gv21MUK3G4z61RX4xbG0VU+srvTlem2Yja5p3YXu3+vPr17dXmSuzM9L9OK/Ye7MSnq4P/J/GKJ+0TwDn46O///N1vz//15bm9wMzMVLx69SrevHlzbq9xWp//qTR2a5r+fHqs1vTxJ5/E13e/ju///X3s7+9f9HJ6/vrna2O1TxGup6xrf7k5VmuanPw4vvzjH8ZqTb/++r+LXsJ70h6AEVe4d6XbJ/Zh9ee0f67XD4WuzsCTsQg13XtM6d8DRqeEDwDOVHu89oEx3B+CzlS8oz7f+unH97wggPOhhA+AC1HqlV0dUQp3CS1tFFGZig+zhGy3Foulznj7Xplj20WfxA2O6h92S2GALAEKgPcsM4L9ctr6pnwlguDINleiPIanbqcd1Q9wHCV8AAAASQIUAABAkgAFAACQ9NHNmzd/u+hFAAAAXAZOoAAAAJIEKAAAgCQBCgAAIEmAAgAASBKgAAAAkgQoAACAJAEKAAAgSYACAABIEqAAAACSBCgAAIAkAQoAACBJgAIAAEgSoAAAAJIEKAAAgCQBCgAAIEmAAgAASBKgAAAAkgQoAACAJAEKAAAgSYACAABIEqAAAACSBCgAAIAkAQoAACBJgAIAAEgSoAAAAJIEKAAAgCQBCgAAIEmAAgAASBKgAAAAkgQoAACAJAEKAAAgSYACAABIEqAAAACSBCgAAIAkAQoAACBJgAIAAEgSoAAAAJIEKAAAgCQBCgAAIEmAAgAASBKgAAAAkgQoAACAJAEKAAAgSYACAABIEqAAAACSBCgAAIAkAQoAACBJgAIAAEgSoAAAAJIEKAAAgCQBCgAAIEmAAgAASBKgAAAAkgQoAACAJAEKAAAgSYACAABIEqAAAACSBCgAAIAkAQoAACBJgAIAAEgSoAAAAJIEKAAAgCQBCgAAIEmAAgAASBKgAAAAkgQoAACAJAEKAAAgSYACAABIEqAAAACSBCgAAIAkAQoAACBJgAIAAEgSoAAAAJIEKAAAgCQBCgAAIEmAAgAASBKgAAAAkgQoAACAJAEKAAAgSYACAABIEqAAAACSBCgAAIAkAQoAACBJgAIAAEgSoAAAAJIEKAAAgCQBCgAAIEmAAgAASBKgAAAAkgQoAACAJAEKAAAgSYACAABIEqAAAACSBCgAAIAkAQoAACBJgAIAAEgSoAAAAJIEKAAAgCQBCgAAIEmAAgAASBKgAAAAkgQoAACAJAEKAAAgSYACAABIEqAAAACSBCgAAIAkAQoAACBJgAIAAEgSoAAAAJIEKAAAgCQBCgAAIEmAAgAASBKgAAAAkgQoAACAJAEKAAAgSYACAABIEqAAAACSBCgAAIAkAQoAACBJgAIAAEgSoAAAAJIEKAAAgCQBCgAAIEmAAgAASBKgAAAAkgQoAACAJAEKAAAgSYACAABIEqAAAACS/g+wX8fkQoFMtAAAAABJRU5ErkJggg==;" vertex="1" parent="1">
                    <mxGeometry x="-184" y="-109" width="899" height="961.55" as="geometry"/>
                </mxCell>
            </root>
        </mxGraphModel>
    </diagram>
</mxfile>